<svg width="20" height="20" viewBox="0 0 20 20" fill="none" xmlns="http://www.w3.org/2000/svg">
<path d="M19.4757 15.429L15.4276 12.7294C14.9139 12.3895 14.2253 12.5013 13.8455 12.9863L12.6663 14.5024C12.5148 14.7022 12.2393 14.7602 12.0201 14.6384L11.7958 14.5148C11.0522 14.1095 10.1271 13.6049 8.263 11.7402C6.39894 9.87544 5.89335 8.94956 5.48806 8.20737L5.36507 7.98306C5.24161 7.76388 5.29848 7.48724 5.49837 7.33449L7.01346 6.15568C7.49823 5.77585 7.61021 5.08744 7.27076 4.57357L4.57117 0.525501C4.22329 0.00221889 3.52534 -0.154867 2.98679 0.168874L1.29403 1.18571C0.76216 1.4984 0.371944 2.00481 0.205211 2.59883C-0.404347 4.81982 0.0542175 8.65293 5.70072 14.3001C10.1924 18.7914 13.5362 19.9993 15.8346 19.9993C16.3635 20.0015 16.8904 19.9327 17.401 19.7946C17.9952 19.6281 18.5016 19.2378 18.8141 18.7058L19.832 17.0141C20.1562 16.4754 19.9992 15.777 19.4757 15.429ZM19.2577 16.6721L18.2422 18.3648C18.0178 18.7488 17.6535 19.0312 17.2257 19.1527C15.1753 19.7157 11.5932 19.2494 6.1723 13.8285C0.751419 8.40765 0.285199 4.82584 0.848123 2.77517C0.969824 2.34679 1.25252 1.98204 1.63699 1.75731L3.32975 0.741796C3.56342 0.601192 3.86635 0.669346 4.0173 0.896422L5.48376 3.09809L6.7146 4.94414C6.862 5.16704 6.81357 5.46578 6.60329 5.63072L5.08785 6.80953C4.62666 7.16217 4.49497 7.80024 4.77891 8.30665L4.89924 8.52529C5.32519 9.3065 5.85476 10.2783 7.78815 12.2114C9.72153 14.1445 10.6931 14.6741 11.4739 15.1L11.6929 15.2206C12.1993 15.5045 12.8374 15.3729 13.19 14.9117L14.3688 13.3962C14.5338 13.1861 14.8324 13.1377 15.0554 13.2849L19.1031 15.9845C19.3303 16.1354 19.3985 16.4384 19.2577 16.6721Z" fill="#1F2326"/>
<path d="M11.3333 3.33512C14.461 3.3386 16.9956 5.87326 16.9991 9.00096C16.9991 9.18503 17.1483 9.33423 17.3324 9.33423C17.5165 9.33423 17.6657 9.18503 17.6657 9.00096C17.6618 5.50527 14.829 2.67241 11.3333 2.66858C11.1492 2.66858 11 2.81778 11 3.00185C11 3.18592 11.1492 3.33512 11.3333 3.33512Z" fill="#1F2326"/>
<path d="M11.3333 5.33475C13.357 5.33714 14.997 6.97713 14.9994 9.00089C14.9994 9.18496 15.1486 9.33416 15.3327 9.33416C15.5168 9.33416 15.6659 9.18496 15.6659 9.00089C15.6632 6.60914 13.725 4.67095 11.3333 4.66821C11.1492 4.66821 11 4.81741 11 5.00148C11 5.18556 11.1492 5.33475 11.3333 5.33475Z" fill="#1F2326"/>
<path d="M11.3333 7.33451C12.2531 7.3356 12.9986 8.08104 12.9997 9.00094C12.9997 9.18502 13.1489 9.33421 13.333 9.33421C13.517 9.33421 13.6662 9.18502 13.6662 9.00094C13.6648 7.71309 12.6211 6.66941 11.3333 6.66797C11.1492 6.66797 11 6.81717 11 7.00124C11 7.18531 11.1492 7.33451 11.3333 7.33451Z" fill="#1F2326"/>
</svg>
