<svg width="32" height="32" viewBox="0 0 32 32" fill="none" xmlns="http://www.w3.org/2000/svg">
<g clip-path="url(#clip0)">
<path d="M31.8699 13.6475L26.514 6.68999C26.3157 6.43267 25.9542 6.36919 25.68 6.54351L22.222 8.74272H17.712C17.6536 8.74272 17.5955 8.75518 17.5394 8.77153L14.0426 9.77813L10.4141 8.78569L6.8885 6.54351C6.61896 6.37212 6.26398 6.43022 6.06354 6.67876L0.139471 14.0167C-0.0734197 14.2803 -0.0382634 14.6653 0.218573 14.8863L3.32355 17.5584L6.1092 21.3123C5.2945 22.1802 5.31037 23.5491 6.15803 24.397C6.53376 24.7725 7.01154 24.9847 7.503 25.034C7.48591 25.1453 7.47712 25.2584 7.47712 25.3731C7.47712 25.9654 7.70783 26.5223 8.12653 26.941C8.54548 27.3599 9.10236 27.5906 9.69465 27.5906C9.70271 27.5906 9.71052 27.5901 9.71833 27.5899C9.71809 27.605 9.71735 27.6199 9.71735 27.6351C9.71735 28.2273 9.94807 28.7842 10.3668 29.2032C10.7857 29.6219 11.3426 29.8526 11.9349 29.8526C12.0518 29.8526 12.1676 29.8431 12.2811 29.8255C12.3292 30.3187 12.5418 30.7986 12.9188 31.1756C13.3509 31.608 13.9188 31.824 14.4866 31.824C15.0545 31.824 15.6224 31.608 16.0548 31.1756L16.3939 30.8365L16.5362 30.9512C16.9649 31.3665 17.5216 31.574 18.0782 31.574C18.6461 31.574 19.2139 31.358 19.6461 30.9256C20.0872 30.4844 20.3033 29.9022 20.2943 29.3228C20.8734 29.3316 21.4559 29.1158 21.897 28.6749C22.3377 28.2339 22.5538 27.6522 22.5452 27.073C23.1485 27.0826 23.7208 26.8509 24.1478 26.4239C24.5889 25.9827 24.805 25.4004 24.796 24.8211C25.3756 24.8299 25.9576 24.6141 26.3988 24.1729C27.1517 23.42 27.2486 22.2562 26.6903 21.397L28.7242 17.1373L31.7821 14.5059C32.0347 14.2884 32.0733 13.9114 31.8699 13.6475ZM6.68781 7.90312L9.22297 9.51519L3.70808 16.2339L1.49811 14.3318L6.68781 7.90312ZM7.04548 22.1482L7.81062 21.3831C7.83381 21.3599 7.85822 21.3379 7.88313 21.3174C8.03278 21.1954 8.21394 21.1226 8.40583 21.1053C8.4112 21.1048 8.41682 21.1048 8.42219 21.1045C8.44953 21.1023 8.47688 21.1009 8.50446 21.1011C8.76667 21.1048 9.01032 21.212 9.19099 21.4026C9.54548 21.7774 9.52644 22.3897 9.14851 22.7676L8.40656 23.5096C8.03132 23.8848 7.42072 23.8848 7.04548 23.5096C6.67023 23.1341 6.67023 22.5235 7.04548 22.1482ZM9.01398 26.0535C8.8321 25.8719 8.732 25.6302 8.732 25.3731C8.732 25.116 8.8321 24.8743 9.01398 24.6924L10.4976 23.2088C10.7818 22.9246 11.2286 22.8467 11.5919 23.0198C11.9664 23.1983 12.1771 23.6048 12.1221 24.0137C12.0928 24.232 11.9913 24.4376 11.8355 24.5936L10.3753 26.0535C10.1934 26.2354 9.95173 26.3355 9.69465 26.3355C9.43757 26.3355 9.19587 26.2354 9.01398 26.0535ZM11.2542 28.3155C11.0723 28.1338 10.9722 27.8921 10.9722 27.6351C10.9722 27.378 11.0723 27.1363 11.2542 26.9544L12.7376 25.4708C13.0416 25.167 13.5291 25.1016 13.9012 25.3182C14.241 25.5159 14.419 25.9041 14.3607 26.2908C14.3287 26.5035 14.2276 26.7034 14.0755 26.8555L12.6155 28.3155C12.4337 28.4974 12.192 28.5975 11.9349 28.5975C11.6778 28.5975 11.4361 28.4974 11.2542 28.3155ZM13.806 30.2881C13.4307 29.9129 13.4307 29.3023 13.806 28.9271L14.5711 28.1619C14.5943 28.1387 14.6185 28.117 14.6434 28.0965C14.6441 28.096 14.6446 28.0955 14.6451 28.095C14.7696 27.9939 14.9158 27.9263 15.0718 27.8968C15.0755 27.8963 15.0792 27.8958 15.0828 27.8953C15.1097 27.8904 15.137 27.8865 15.1644 27.8841C15.1754 27.8831 15.1863 27.8831 15.1976 27.8824C15.22 27.8812 15.2423 27.8797 15.265 27.8799C15.5269 27.8836 15.7708 27.9905 15.9515 28.1814C15.9737 28.2049 15.9945 28.2293 16.0135 28.2544C16.3021 28.6316 16.2633 29.1919 15.9051 29.5503L15.1671 30.2884C14.7918 30.6636 14.1812 30.6634 13.806 30.2881ZM25.5113 23.2855C25.1361 23.6609 24.5255 23.6607 24.1502 23.2855C24.1365 23.2718 24.1221 23.2591 24.1075 23.2471L20.0728 19.17C19.8289 18.9236 19.4317 18.9217 19.1854 19.1656C18.939 19.4092 18.9371 19.8064 19.1807 20.0528L23.2591 24.1736C23.2596 24.1741 23.2601 24.1746 23.2606 24.1751C23.6358 24.5503 23.6358 25.1612 23.2606 25.5364C23.0787 25.7183 22.837 25.8184 22.5799 25.8184C22.3226 25.8184 22.0809 25.7183 21.8992 25.5364L19.171 22.7798C18.9273 22.5335 18.5301 22.5315 18.2838 22.7752C18.0374 23.0191 18.0355 23.4163 18.2791 23.6626L20.9656 26.377C20.9793 26.3941 20.994 26.4105 21.0096 26.4261C21.3848 26.8013 21.3848 27.4122 21.0096 27.7874C20.6341 28.1626 20.0233 28.1624 19.648 27.7872L18.159 26.2825C17.9151 26.0362 17.5179 26.034 17.2716 26.2779C17.0252 26.5215 17.0233 26.9188 17.2669 27.1651L18.7144 28.6275C18.7281 28.6446 18.7427 28.6612 18.7586 28.6768C19.1339 29.0521 19.1339 29.6629 18.7586 30.0381C18.3834 30.4136 17.7728 30.4134 17.3975 30.0381C17.3543 29.9949 17.3035 29.9617 17.2552 29.9246C17.2142 29.8934 17.2034 29.8716 17.2239 29.8218C17.2447 29.7713 17.2757 29.7256 17.2965 29.6749C17.3194 29.6182 17.338 29.5599 17.356 29.5013C17.4522 29.1912 17.4805 28.8577 17.4373 28.5359C17.3543 27.9185 17.0147 27.3614 16.5001 27.0088C16.222 26.8187 15.9002 26.6939 15.5667 26.647C15.7283 25.9341 15.5343 25.1612 15.0294 24.6277C14.6138 24.1888 14.0526 23.9424 13.4488 23.9341C13.4268 23.9339 13.4049 23.9339 13.3826 23.9341C13.3961 23.358 13.1866 22.7855 12.7894 22.3658C12.3736 21.9268 11.8123 21.6805 11.2088 21.6722C11.0294 21.6697 10.8482 21.6888 10.6734 21.7291C10.5987 21.2093 10.3367 20.7283 9.94001 20.3843C9.54572 20.043 9.04987 19.8536 8.5218 19.8462C7.96589 19.8382 7.41975 20.0433 7.0069 20.4161L4.58137 17.1478L10.3841 10.0784L12.2335 10.5843L9.81818 14.8462C9.52619 15.3616 9.45246 15.9598 9.61042 16.5306C9.76838 17.1016 10.139 17.5767 10.6544 17.8687C10.6866 17.887 10.7191 17.9043 10.752 17.9209C10.7545 17.9222 10.7569 17.9234 10.7596 17.9246C10.8463 17.9678 10.9354 18.0049 11.0257 18.0362C11.4464 18.1819 11.9007 18.1978 12.3389 18.0767C12.9097 17.9188 13.3848 17.5479 13.6768 17.0328L15.2464 14.263L18.0489 14.4617L25.5115 21.9241C25.8865 22.2996 25.8865 22.9102 25.5113 23.2855ZM25.7713 20.4092L18.7706 13.4087C18.7574 13.3953 18.7435 13.3826 18.7291 13.3707C18.6282 13.2867 18.5032 13.2359 18.3714 13.2266L14.94 12.9832C14.7027 12.9668 14.4669 13.0931 14.3497 13.2999L12.585 16.4141C12.4583 16.6377 12.252 16.7986 12.0042 16.8672C11.7567 16.9358 11.4969 16.9036 11.273 16.7769C11.0494 16.6502 10.8885 16.4439 10.8199 16.1961C10.7513 15.9483 10.7833 15.6885 10.9102 15.4649L13.2659 11.3074L14.2205 11.0328C14.2269 11.0308 14.233 11.0284 14.2393 11.0264L17.8021 9.99761H22.1068L27.4808 16.8292L25.7713 20.4092ZM28.3028 15.8443L23.3331 9.52324L25.8695 7.91021L30.5133 13.9422L28.3028 15.8443Z" fill="#1F2326"/>
<path d="M19.3865 7.56445C19.5471 7.56445 19.7078 7.50317 19.8303 7.38062L24.1165 3.09448C24.3616 2.84937 24.3616 2.45215 24.1165 2.20703C23.8714 1.96191 23.4741 1.96191 23.229 2.20703L18.9429 6.49316C18.6978 6.73828 18.6978 7.1355 18.9429 7.38062C19.0654 7.50317 19.2261 7.56445 19.3865 7.56445Z" fill="#1F2326"/>
<path d="M12.1696 7.38062C12.2922 7.50317 12.4528 7.56445 12.6135 7.56445C12.7739 7.56445 12.9345 7.50317 13.0571 7.38062C13.3022 7.1355 13.3022 6.73828 13.0571 6.49316L8.77094 2.20703C8.52582 1.96191 8.1286 1.96191 7.88348 2.20703C7.63837 2.45215 7.63837 2.84937 7.88348 3.09448L12.1696 7.38062Z" fill="#1F2326"/>
<path d="M16.0002 7.56446C16.3466 7.56446 16.6276 7.28345 16.6276 6.93701V3.38989C16.6276 3.04346 16.3466 2.76245 16.0002 2.76245C15.6537 2.76245 15.3727 3.04346 15.3727 3.38989V6.93701C15.3727 7.28345 15.6537 7.56446 16.0002 7.56446Z" fill="#1F2326"/>
<path d="M15.4211 1.11578C15.5207 1.35723 15.769 1.51568 16.0309 1.50201C16.2897 1.48858 16.517 1.31378 16.5971 1.06744C16.6774 0.819148 16.59 0.536188 16.382 0.377985C16.1699 0.216364 15.874 0.207331 15.652 0.354059C15.4045 0.517634 15.3085 0.843317 15.4211 1.11578Z" fill="#1F2326"/>
</g>
<defs>
<clipPath id="clip0">
<rect width="32" height="32" fill="white"/>
</clipPath>
</defs>
</svg>
