<svg width="162" height="87" viewBox="0 0 162 87" fill="none" xmlns="http://www.w3.org/2000/svg">
<rect width="162" height="78" rx="4" fill="#1F2326"/>
<path d="M81.366 85.5C80.9811 86.1667 80.0189 86.1667 79.634 85.5L74.8708 77.25C74.4859 76.5833 74.9671 75.75 75.7369 75.75L85.2631 75.75C86.0329 75.75 86.5141 76.5833 86.1292 77.25L81.366 85.5Z" fill="#1F2326"/>
<path fill-rule="evenodd" clip-rule="evenodd" d="M24.528 26.0578C25.0191 26.0578 25.5222 26.0578 26.0252 26.0578C26.8158 26.0578 27.6036 25.7066 28.3961 25.0134C29.1955 24.3144 29.8007 23.4649 30.2167 22.455C30.6311 21.4486 30.7281 20.5939 30.5089 19.8863C30.2913 19.1837 29.7951 18.828 29.0046 18.828C28.5016 18.828 27.9985 18.828 27.5075 18.828C27.3637 18.828 27.2242 18.8827 27.0735 18.98C26.9143 19.0828 26.806 19.2222 26.7302 19.4062C26.3131 20.4183 25.8955 21.4305 25.4786 22.4429C25.061 23.4569 24.6438 24.4693 24.2266 25.4816C24.1516 25.6635 24.1455 25.8022 24.2194 25.9056C24.2898 26.0044 24.3843 26.0578 24.528 26.0578ZM16.0455 35.0459C17.1241 32.4272 18.2039 29.8063 19.2839 27.186C20.363 24.5672 21.444 21.9447 22.524 19.3241C22.9172 18.37 23.0245 17.6102 22.8773 17.0415C22.8304 16.86 22.8646 16.6981 22.9494 16.5754C23.042 16.4415 23.1601 16.3834 23.2919 16.3834C25.8431 16.3834 28.3944 16.3836 30.9575 16.3836C32.5984 16.3836 33.7897 16.9832 34.5289 18.1821C35.2688 19.3817 35.2874 20.8167 34.6009 22.483C33.921 24.1332 32.7245 25.5533 31.0006 26.7439C29.2751 27.9356 27.5931 28.5303 25.9522 28.5303C25.1376 28.5303 24.3232 28.5303 23.5088 28.5303C23.365 28.5303 23.224 28.5911 23.0689 28.6983C22.9057 28.8111 22.7997 28.9444 22.7314 29.1104C22.3232 30.1005 21.9149 31.0908 21.5077 32.0791C21.1006 33.0673 20.6926 34.0576 20.2856 35.0457C20.2256 35.1918 20.1116 35.3244 19.9541 35.4439C19.7981 35.5623 19.6412 35.62 19.4855 35.62C18.4315 35.62 17.3775 35.62 16.3355 35.62C16.2037 35.62 16.1124 35.5598 16.0494 35.4439C15.9829 35.3217 15.9855 35.1917 16.0455 35.0459ZM37.7874 31.1147C37.803 29.1503 37.8261 27.1838 37.8573 25.2196C37.8885 23.2552 37.9446 21.289 37.9509 19.3243C37.9544 18.2419 37.7828 17.4999 37.5263 17.0719C37.4205 16.8951 37.4277 16.7278 37.5084 16.5898C37.5891 16.4518 37.725 16.3837 37.9045 16.3837C39.1861 16.3837 40.4679 16.3838 41.7614 16.3838C42.0368 16.3838 42.2104 16.4236 42.291 16.4939C42.3779 16.5697 42.4145 16.7139 42.4092 16.9339C42.373 18.4141 42.3392 19.8947 42.3049 21.3728C42.2706 22.8511 42.2155 24.3311 42.2014 25.8096C42.2003 25.9391 42.2659 26.0016 42.3498 26.0016C42.4336 26.0016 42.5309 25.9368 42.6326 25.8096C43.8158 24.3306 45.0014 22.8511 46.1856 21.3728C47.3698 19.8947 48.5696 18.4166 49.7635 16.9362C49.9407 16.7164 50.0964 16.5692 50.2321 16.4941C50.3601 16.4233 50.5529 16.3841 50.8044 16.3841C51.3914 16.3841 51.9782 16.3841 52.5771 16.3841C52.7567 16.3841 52.8715 16.4366 52.9048 16.5502C52.9367 16.6587 52.8787 16.7883 52.7579 16.9363C50.2908 19.9567 47.8217 22.9828 45.3672 26.0037C42.9118 29.0257 40.4481 32.0445 38.0017 35.0694C37.811 35.3051 37.6602 35.4572 37.5152 35.5234C37.38 35.5852 37.1882 35.6195 36.9247 35.6195C36.3379 35.6195 35.751 35.6195 35.1641 35.6195C34.8048 35.6195 34.7728 35.4402 35.0672 35.0715C35.8122 34.1381 36.5529 33.2007 37.3119 32.2689C37.5223 32.0106 37.6523 31.8208 37.7049 31.6928C37.7577 31.5648 37.7854 31.3726 37.7874 31.1147ZM54.7691 16.3862C59.7517 16.3862 64.7464 16.3865 69.7411 16.3865C69.9086 16.3865 70.0286 16.4462 70.0869 16.5645C70.146 16.6841 70.1466 16.8267 70.079 16.9906C68.8385 20.001 67.5983 23.0093 66.3581 26.0177C65.1181 29.026 63.878 32.0345 62.6383 35.0428C62.5781 35.1888 62.464 35.3213 62.3065 35.4408C62.1504 35.5592 61.9816 35.6189 61.8139 35.6189C60.7958 35.6189 59.7777 35.619 58.7717 35.619C58.604 35.619 58.4843 35.5592 58.4258 35.4409C58.3667 35.3214 58.3619 35.1889 58.4221 35.0429C59.4953 32.4386 60.5696 29.8321 61.6432 27.2279C62.7167 24.6235 63.7921 22.015 64.8663 19.4088C64.9347 19.2428 64.9326 19.101 64.8742 18.9827C64.8152 18.8632 64.708 18.8048 64.5764 18.8048C62.6959 18.8048 60.8273 18.8047 58.9589 18.8047C58.5996 18.8047 58.3375 19.0047 58.171 19.4087C57.0967 22.015 56.0213 24.6236 54.9478 27.2279C53.8743 29.8322 52.7998 32.4406 51.7267 35.0431C51.6665 35.1889 51.5624 35.3187 51.395 35.4411C51.2369 35.5568 51.0701 35.6192 50.9024 35.6192C49.8724 35.6192 48.8424 35.6192 47.8123 35.6192C47.6805 35.6192 47.5727 35.5595 47.5143 35.4412C47.4553 35.3216 47.4505 35.189 47.5106 35.0432C48.5894 32.4267 49.6696 29.8041 50.749 27.1859C51.8283 24.5675 52.9085 21.9469 53.9887 19.3246C54.3817 18.3704 54.4986 17.6137 54.3423 17.0442C54.2927 16.8635 54.3298 16.7091 54.4265 16.5782C54.519 16.453 54.6374 16.3862 54.7691 16.3862ZM68.9542 31.1683C69.6775 30.2653 70.4214 29.1201 71.1663 27.7199C71.9111 26.3199 72.6571 24.6623 73.4258 22.7614C73.8897 21.6141 74.3689 20.4731 74.8413 19.327C75.2188 18.4109 75.3148 17.6512 75.1592 17.0447C75.1126 16.8633 75.1466 16.7096 75.2434 16.5787C75.3359 16.4536 75.4543 16.3867 75.586 16.3867C79.5746 16.3867 83.5631 16.3871 87.5636 16.3871C87.7192 16.3871 87.8225 16.4492 87.8855 16.5651C87.9518 16.6873 87.9451 16.8271 87.8775 16.9911C86.6367 20.0012 85.3966 23.0096 84.1566 26.0178C82.9167 29.0259 81.6767 32.0343 80.4368 35.0425C80.3766 35.1884 80.2724 35.3181 80.105 35.4406C79.9468 35.5562 79.792 35.6186 79.6363 35.6186C78.5824 35.6186 77.5402 35.6186 76.4982 35.6186C76.3665 35.6186 76.2586 35.5589 76.2003 35.4406C76.1413 35.321 76.1365 35.1885 76.1967 35.0425C77.2668 32.4463 78.337 29.8502 79.4072 27.2539C80.4773 24.6578 81.5476 22.0613 82.6185 19.4632C82.6935 19.2812 82.7029 19.1322 82.6371 19.0112C82.5734 18.8941 82.4717 18.8312 82.3161 18.8312C80.9386 18.8312 79.5733 18.831 78.2078 18.831C77.8964 18.831 77.6843 18.9971 77.5482 19.3271C77.0272 20.5912 76.506 21.8553 75.9858 23.1174C75.0945 25.2795 74.1708 27.1719 73.2516 28.792C72.3323 30.4122 71.3851 31.7694 70.4194 32.8445C69.6586 33.6914 68.7914 34.3898 67.8281 34.9467C66.8574 35.5079 65.9112 35.8266 64.994 35.8949C64.6755 35.9186 64.5751 35.7776 64.6488 35.4829C64.8151 34.8175 64.9677 34.1456 65.1402 33.4766C65.1879 33.2915 65.287 33.151 65.4476 33.0506C65.6097 32.9491 65.79 32.9185 65.9782 32.9545C66.467 33.0484 66.9795 32.9085 67.5136 32.5424C68.0477 32.1765 68.5178 31.7133 68.9542 31.1683ZM96.1452 21.1677C95.3698 22.1934 94.5838 23.2118 93.8162 24.2317C93.0484 25.2517 92.2651 26.2718 91.5 27.2939C91.1992 27.6959 91.2271 27.898 91.5864 27.898C92.88 27.898 94.1856 27.898 95.4911 27.898C95.8745 27.898 96.0689 27.6983 96.0994 27.2939C96.1765 26.2743 96.2465 25.2518 96.3315 24.2318C96.4166 23.2119 96.4746 22.1881 96.5763 21.1677C96.5894 21.0371 96.5596 20.9756 96.4519 20.9756C96.3321 20.9756 96.239 21.0435 96.1452 21.1677ZM96.3073 16.3873C97.6847 16.3873 99.0742 16.3874 100.464 16.3874C100.883 16.3874 101.056 16.5972 101.029 17.0195C100.841 20.0234 100.672 23.0298 100.488 26.0319C100.305 29.0339 100.136 32.0384 99.9602 35.0421C99.9517 35.1883 99.8846 35.3234 99.76 35.4402C99.6306 35.5615 99.4829 35.6181 99.3153 35.6181C98.2014 35.6181 97.0874 35.6183 95.9856 35.6183C95.6142 35.6183 95.4303 35.4256 95.4566 35.0422C95.5546 33.6135 95.6712 32.1857 95.7982 30.7562C95.8226 30.4817 95.6686 30.3441 95.3332 30.3441C93.4169 30.3441 91.5124 30.3442 89.6079 30.3442C89.3325 30.3442 89.1002 30.4853 88.8991 30.7562C87.8349 32.1895 86.7719 33.6213 85.7068 35.0424C85.4139 35.4333 85.0741 35.6184 84.7028 35.6184C84.0679 35.6184 83.4332 35.6185 82.8104 35.6185C82.6427 35.6185 82.535 35.5586 82.5004 35.4405C82.4655 35.3207 82.5015 35.1924 82.6167 35.0424C84.6232 32.4282 86.6325 29.804 88.6339 27.186C90.6353 24.5678 92.6583 21.9542 94.664 19.3275C95.0789 18.7841 95.3592 18.3093 95.5174 17.9254C95.6534 17.5954 95.7113 17.3035 95.7006 17.0453C95.6937 16.8815 95.7582 16.7313 95.887 16.5933C96.0156 16.4554 96.1517 16.3873 96.3073 16.3873ZM118.191 18.45C116.55 18.45 114.844 19.1654 113.068 20.5919C112.175 21.3092 111.386 22.114 110.727 23.016C110.067 23.9179 109.501 24.9139 109.053 26.002C108.607 27.0839 108.342 28.074 108.259 28.974C108.175 29.8739 108.301 30.6804 108.6 31.4C109.196 32.8364 110.286 33.556 111.891 33.556C113.005 33.556 114.225 33.2741 115.536 32.704C116.837 32.1382 118.04 31.3506 119.207 30.4239C119.607 30.1058 119.924 30.0938 120.102 30.2859C120.306 30.506 120.528 30.707 120.74 30.9179C120.978 31.1549 120.927 31.4618 120.557 31.7979C119.051 33.1659 117.415 34.1936 115.678 34.9179C113.943 35.6416 112.2 36 110.44 36C107.517 36 105.497 35.0638 104.378 33.1861C103.819 32.2479 103.541 31.178 103.567 29.984C103.592 28.7881 103.9 27.4598 104.501 26.0019C105.104 24.5379 105.882 23.2034 106.831 22.0058C107.779 20.8095 108.926 19.7403 110.234 18.8079C112.86 16.9364 115.655 16 118.637 16C120.338 16 121.774 16.3824 122.933 17.1442C124.093 17.9064 124.885 18.934 125.3 20.2361C125.381 20.49 125.2 20.7921 124.771 21.1421C124.19 21.6159 123.607 22.0867 123.032 22.5701C122.82 22.7486 122.625 22.8329 122.445 22.804C122.277 22.777 122.169 22.6446 122.154 22.4041C121.989 19.7686 120.682 18.45 118.191 18.45ZM131.747 18.8343C131.136 18.8343 130.525 18.8343 129.914 18.8343C129.172 18.8343 128.371 18.9688 127.493 19.2462C127.27 19.3167 127.131 19.3166 127.062 19.2462C126.987 19.1705 126.995 19.0434 127.088 18.8622C127.415 18.2274 127.755 17.5989 128.098 16.9662C128.305 16.5831 128.599 16.3883 128.982 16.3883C133.282 16.3883 137.582 16.3886 141.882 16.3886C142.253 16.3886 142.392 16.5835 142.279 16.9666C142.093 17.5992 141.893 18.2283 141.725 18.8625C141.676 19.0443 141.57 19.1714 141.435 19.2465C141.306 19.3174 141.166 19.316 141.003 19.2464C140.352 18.9681 139.664 18.8345 138.921 18.8345C138.311 18.8345 137.7 18.8344 137.089 18.8344C136.957 18.8344 136.801 18.8949 136.643 19.0143C136.487 19.1328 136.364 19.2844 136.289 19.4664C135.221 22.0581 134.152 24.6503 133.084 27.2399C132.017 29.8279 130.948 32.4217 129.88 35.0116C129.812 35.1756 129.704 35.3151 129.536 35.4375C129.378 35.5531 129.223 35.6155 129.067 35.6155C128.025 35.6155 126.983 35.6156 125.953 35.6156C125.798 35.6156 125.69 35.5559 125.631 35.4376C125.572 35.318 125.572 35.1756 125.64 35.0117C126.708 32.4218 127.777 29.8298 128.844 27.2399C129.912 24.6501 130.981 22.0581 132.049 19.4663C132.124 19.2844 132.126 19.1326 132.068 19.0142C132.009 18.8947 131.903 18.8343 131.747 18.8343Z" fill="white"/>
<path fill-rule="evenodd" clip-rule="evenodd" d="M53.8362 17.4941V18.1472H146V17.4941H53.8362Z" fill="#1F2326"/>
<path fill-rule="evenodd" clip-rule="evenodd" d="M53.067 19.6713V20.3244H143.218V19.6713H53.067Z" fill="#1F2326"/>
<path fill-rule="evenodd" clip-rule="evenodd" d="M51.5985 21.9489V22.6019H141.26V21.9489H51.5985Z" fill="#1F2326"/>
<path fill-rule="evenodd" clip-rule="evenodd" d="M49.5551 24.1257V24.7788H141.12V24.1257H49.5551Z" fill="#1F2326"/>
<path fill-rule="evenodd" clip-rule="evenodd" d="M48.5898 26.4033V27.0564H140.279V26.4033H48.5898Z" fill="#1F2326"/>
<path fill-rule="evenodd" clip-rule="evenodd" d="M47.8913 28.5803V29.2334H139.161V28.5803H47.8913Z" fill="#1F2326"/>
<path fill-rule="evenodd" clip-rule="evenodd" d="M46.8416 30.7574V31.4105H138.041V30.7574H46.8416Z" fill="#1F2326"/>
<path fill-rule="evenodd" clip-rule="evenodd" d="M45.1631 32.6326V33.2857H137.202V32.6326H45.1631Z" fill="#1F2326"/>
<path fill-rule="evenodd" clip-rule="evenodd" d="M44.0448 34.5081V35.1611H135.385V34.5081H44.0448Z" fill="#1F2326"/>
<path d="M36.812 53.142C36.812 52.3113 36.9333 51.5787 37.176 50.944C37.428 50.3093 37.764 49.782 38.184 49.362C38.6133 48.9327 39.108 48.6107 39.668 48.396C40.2373 48.1813 40.8393 48.074 41.474 48.074C42.0993 48.074 42.6873 48.1813 43.238 48.396C43.798 48.6107 44.288 48.9327 44.708 49.362C45.128 49.782 45.4593 50.3093 45.702 50.944C45.954 51.5787 46.08 52.3113 46.08 53.142C46.08 53.9727 45.954 54.7053 45.702 55.34C45.4593 55.9747 45.128 56.5067 44.708 56.936C44.288 57.356 43.798 57.6733 43.238 57.888C42.6873 58.1027 42.0993 58.21 41.474 58.21C40.8393 58.21 40.2373 58.1027 39.668 57.888C39.108 57.6733 38.6133 57.356 38.184 56.936C37.764 56.5067 37.428 55.9747 37.176 55.34C36.9333 54.7053 36.812 53.9727 36.812 53.142ZM38.24 53.142C38.24 53.73 38.3147 54.2667 38.464 54.752C38.6133 55.228 38.8233 55.634 39.094 55.97C39.374 56.306 39.71 56.5673 40.102 56.754C40.5033 56.9313 40.9513 57.02 41.446 57.02C41.9407 57.02 42.384 56.9313 42.776 56.754C43.168 56.5673 43.4993 56.306 43.77 55.97C44.05 55.634 44.2647 55.228 44.414 54.752C44.5633 54.2667 44.638 53.73 44.638 53.142C44.638 52.554 44.5633 52.022 44.414 51.546C44.2647 51.0607 44.05 50.65 43.77 50.314C43.4993 49.978 43.168 49.7213 42.776 49.544C42.384 49.3573 41.9407 49.264 41.446 49.264C40.9513 49.264 40.5033 49.3573 40.102 49.544C39.71 49.7213 39.374 49.978 39.094 50.314C38.8233 50.65 38.6133 51.0607 38.464 51.546C38.3147 52.022 38.24 52.554 38.24 53.142ZM48.9265 54.36C48.9265 54.7707 48.9918 55.1347 49.1225 55.452C49.2625 55.7693 49.4538 56.04 49.6965 56.264C49.9392 56.4787 50.2238 56.6467 50.5505 56.768C50.8865 56.88 51.2458 56.9407 51.6285 56.95V51.77C51.2458 51.7793 50.8865 51.8447 50.5505 51.966C50.2238 52.0873 49.9392 52.26 49.6965 52.484C49.4538 52.6987 49.2625 52.9647 49.1225 53.282C48.9918 53.5993 48.9265 53.9587 48.9265 54.36ZM52.8885 56.95C53.2712 56.9407 53.6258 56.88 53.9525 56.768C54.2885 56.6467 54.5778 56.4787 54.8205 56.264C55.0632 56.04 55.2498 55.7693 55.3805 55.452C55.5205 55.1347 55.5905 54.7707 55.5905 54.36C55.5905 53.9587 55.5205 53.5993 55.3805 53.282C55.2498 52.9647 55.0632 52.6987 54.8205 52.484C54.5778 52.26 54.2885 52.0873 53.9525 51.966C53.6258 51.8447 53.2712 51.7793 52.8885 51.77V56.95ZM52.8885 60.59H51.6285V58.042C51.0778 58.0327 50.5598 57.944 50.0745 57.776C49.5892 57.608 49.1598 57.37 48.7865 57.062C48.4225 56.7447 48.1332 56.362 47.9185 55.914C47.7038 55.4567 47.5965 54.9387 47.5965 54.36C47.5965 53.7813 47.7038 53.268 47.9185 52.82C48.1332 52.3627 48.4225 51.98 48.7865 51.672C49.1598 51.3547 49.5892 51.112 50.0745 50.944C50.5598 50.776 51.0778 50.6873 51.6285 50.678V47.36L52.8885 47.136V50.678C53.4298 50.6873 53.9432 50.776 54.4285 50.944C54.9232 51.112 55.3525 51.3547 55.7165 51.672C56.0898 51.98 56.3838 52.3627 56.5985 52.82C56.8132 53.268 56.9205 53.7813 56.9205 54.36C56.9205 54.9387 56.8132 55.4567 56.5985 55.914C56.3838 56.362 56.0898 56.7447 55.7165 57.062C55.3525 57.37 54.9232 57.608 54.4285 57.776C53.9432 57.944 53.4298 58.0327 52.8885 58.042V60.59ZM64.8532 50.72V58H63.5932V52.456C63.3132 52.8107 63.0052 53.226 62.6692 53.702C62.3332 54.178 61.9972 54.6727 61.6612 55.186C61.3252 55.69 61.0032 56.1893 60.6952 56.684C60.3872 57.1787 60.1212 57.6173 59.8972 58H58.7352V50.72H59.9952V55.956C60.2379 55.5547 60.5132 55.116 60.8212 54.64C61.1292 54.1547 61.4466 53.6787 61.7732 53.212C62.1092 52.736 62.4406 52.2833 62.7672 51.854C63.1032 51.4153 63.4159 51.0373 63.7052 50.72H64.8532ZM70.2528 58.168C69.6648 58.168 69.1468 58.0747 68.6988 57.888C68.2601 57.7013 67.8868 57.44 67.5788 57.104C67.2801 56.768 67.0561 56.3713 66.9068 55.914C66.7574 55.4473 66.6828 54.934 66.6828 54.374C66.6828 53.814 66.7621 53.3007 66.9208 52.834C67.0888 52.3673 67.3221 51.966 67.6208 51.63C67.9194 51.2847 68.2834 51.0187 68.7128 50.832C69.1514 50.636 69.6368 50.538 70.1688 50.538C70.4954 50.538 70.8221 50.566 71.1488 50.622C71.4754 50.678 71.7881 50.7667 72.0868 50.888L71.7928 51.994C71.5968 51.9007 71.3681 51.826 71.1068 51.77C70.8548 51.714 70.5841 51.686 70.2948 51.686C69.5668 51.686 69.0068 51.9147 68.6148 52.372C68.2321 52.8293 68.0408 53.4967 68.0408 54.374C68.0408 54.766 68.0828 55.1253 68.1668 55.452C68.2601 55.7787 68.4001 56.0587 68.5868 56.292C68.7828 56.5253 69.0301 56.7073 69.3288 56.838C69.6274 56.9593 69.9914 57.02 70.4208 57.02C70.7661 57.02 71.0788 56.9873 71.3588 56.922C71.6388 56.8567 71.8581 56.7867 72.0168 56.712L72.1988 57.804C72.1241 57.8507 72.0168 57.8973 71.8768 57.944C71.7368 57.9813 71.5781 58.014 71.4008 58.042C71.2234 58.0793 71.0321 58.1073 70.8268 58.126C70.6308 58.154 70.4394 58.168 70.2528 58.168ZM82.9548 50.72V58H81.6948V52.456C81.4148 52.8107 81.1068 53.226 80.7708 53.702C80.4348 54.178 80.0988 54.6727 79.7628 55.186C79.4268 55.69 79.1048 56.1893 78.7968 56.684C78.4888 57.1787 78.2228 57.6173 77.9988 58H76.8368V50.72H78.0968V55.956C78.3395 55.5547 78.6148 55.116 78.9228 54.64C79.2308 54.1547 79.5481 53.6787 79.8748 53.212C80.2108 52.736 80.5421 52.2833 80.8688 51.854C81.2048 51.4153 81.5175 51.0373 81.8068 50.72H82.9548ZM91.5945 58.168C91.0065 58.168 90.4885 58.0747 90.0405 57.888C89.6019 57.7013 89.2285 57.44 88.9205 57.104C88.6219 56.768 88.3979 56.3713 88.2485 55.914C88.0992 55.4473 88.0245 54.934 88.0245 54.374C88.0245 53.814 88.1039 53.3007 88.2625 52.834C88.4305 52.3673 88.6639 51.966 88.9625 51.63C89.2612 51.2847 89.6252 51.0187 90.0545 50.832C90.4932 50.636 90.9785 50.538 91.5105 50.538C91.8372 50.538 92.1639 50.566 92.4905 50.622C92.8172 50.678 93.1299 50.7667 93.4285 50.888L93.1345 51.994C92.9385 51.9007 92.7099 51.826 92.4485 51.77C92.1965 51.714 91.9259 51.686 91.6365 51.686C90.9085 51.686 90.3485 51.9147 89.9565 52.372C89.5739 52.8293 89.3825 53.4967 89.3825 54.374C89.3825 54.766 89.4245 55.1253 89.5085 55.452C89.6019 55.7787 89.7419 56.0587 89.9285 56.292C90.1245 56.5253 90.3719 56.7073 90.6705 56.838C90.9692 56.9593 91.3332 57.02 91.7625 57.02C92.1079 57.02 92.4205 56.9873 92.7005 56.922C92.9805 56.8567 93.1999 56.7867 93.3585 56.712L93.5405 57.804C93.4659 57.8507 93.3585 57.8973 93.2185 57.944C93.0785 57.9813 92.9199 58.014 92.7425 58.042C92.5652 58.0793 92.3739 58.1073 92.1685 58.126C91.9725 58.154 91.7812 58.168 91.5945 58.168ZM97.5984 54.038C97.8877 54.2433 98.2004 54.5047 98.5364 54.822C98.8724 55.13 99.199 55.466 99.5164 55.83C99.843 56.194 100.146 56.5673 100.426 56.95C100.706 57.3233 100.944 57.6733 101.14 58H99.6004C99.395 57.6827 99.1524 57.3607 98.8724 57.034C98.6017 56.698 98.317 56.376 98.0184 56.068C97.7197 55.76 97.4164 55.4753 97.1084 55.214C96.8004 54.9527 96.511 54.7333 96.2404 54.556V58H94.9384V50.72H96.2404V53.842C96.4644 53.6273 96.721 53.38 97.0104 53.1C97.2997 52.8107 97.589 52.5213 97.8784 52.232C98.177 51.9333 98.4524 51.6533 98.7044 51.392C98.9564 51.1213 99.1617 50.8973 99.3204 50.72H100.832C100.627 50.944 100.384 51.2007 100.104 51.49C99.8337 51.77 99.549 52.0593 99.2504 52.358C98.961 52.6567 98.6717 52.9553 98.3824 53.254C98.093 53.5433 97.8317 53.8047 97.5984 54.038ZM105.293 51.812C105.293 52.12 105.283 52.4513 105.265 52.806C105.255 53.1513 105.232 53.5013 105.195 53.856C105.157 54.2013 105.106 54.5467 105.041 54.892C104.975 55.228 104.891 55.5453 104.789 55.844C104.686 56.1427 104.555 56.4227 104.397 56.684C104.247 56.9453 104.061 57.1787 103.837 57.384C103.613 57.58 103.351 57.748 103.053 57.888C102.754 58.0187 102.404 58.1027 102.003 58.14L101.821 57.048C102.278 56.9547 102.637 56.782 102.899 56.53C103.169 56.278 103.384 55.97 103.543 55.606C103.683 55.2887 103.785 54.9293 103.851 54.528C103.916 54.1267 103.963 53.7113 103.991 53.282C104.019 52.8433 104.033 52.4047 104.033 51.966C104.042 51.5273 104.047 51.112 104.047 50.72H108.891V58H107.589V51.812H105.293ZM113.59 57.062C113.898 57.062 114.169 57.0573 114.402 57.048C114.645 57.0293 114.845 57.0013 115.004 56.964V54.794C114.911 54.7473 114.757 54.71 114.542 54.682C114.337 54.6447 114.085 54.626 113.786 54.626C113.59 54.626 113.38 54.64 113.156 54.668C112.941 54.696 112.741 54.7567 112.554 54.85C112.377 54.934 112.227 55.0553 112.106 55.214C111.985 55.3633 111.924 55.564 111.924 55.816C111.924 56.2827 112.073 56.6093 112.372 56.796C112.671 56.9733 113.077 57.062 113.59 57.062ZM113.478 50.538C114.001 50.538 114.439 50.608 114.794 50.748C115.158 50.8787 115.447 51.07 115.662 51.322C115.886 51.5647 116.045 51.8587 116.138 52.204C116.231 52.54 116.278 52.9133 116.278 53.324V57.874C116.166 57.8927 116.007 57.9207 115.802 57.958C115.606 57.986 115.382 58.014 115.13 58.042C114.878 58.07 114.603 58.0933 114.304 58.112C114.015 58.14 113.725 58.154 113.436 58.154C113.025 58.154 112.647 58.112 112.302 58.028C111.957 57.944 111.658 57.8133 111.406 57.636C111.154 57.4493 110.958 57.2067 110.818 56.908C110.678 56.6093 110.608 56.25 110.608 55.83C110.608 55.4287 110.687 55.0833 110.846 54.794C111.014 54.5047 111.238 54.2713 111.518 54.094C111.798 53.9167 112.125 53.786 112.498 53.702C112.871 53.618 113.263 53.576 113.674 53.576C113.805 53.576 113.94 53.5853 114.08 53.604C114.22 53.6133 114.351 53.632 114.472 53.66C114.603 53.6787 114.715 53.6973 114.808 53.716C114.901 53.7347 114.967 53.7487 115.004 53.758V53.394C115.004 53.1793 114.981 52.9693 114.934 52.764C114.887 52.5493 114.803 52.3627 114.682 52.204C114.561 52.036 114.393 51.9053 114.178 51.812C113.973 51.7093 113.702 51.658 113.366 51.658C112.937 51.658 112.559 51.6907 112.232 51.756C111.915 51.812 111.677 51.8727 111.518 51.938L111.364 50.86C111.532 50.7853 111.812 50.7153 112.204 50.65C112.596 50.5753 113.021 50.538 113.478 50.538ZM117.544 56.936H118.328C118.636 56.488 118.879 56.026 119.056 55.55C119.243 55.074 119.383 54.584 119.476 54.08C119.57 53.5667 119.63 53.0347 119.658 52.484C119.686 51.924 119.705 51.336 119.714 50.72H124.488V56.936H125.468V60.03H124.236V58H118.776V60.03H117.544V56.936ZM123.186 56.936V51.812H120.904C120.895 52.2507 120.872 52.694 120.834 53.142C120.797 53.5807 120.736 54.0193 120.652 54.458C120.568 54.8873 120.447 55.312 120.288 55.732C120.139 56.1427 119.948 56.544 119.714 56.936H123.186Z" fill="white"/>
</svg>
