<svg width="20" height="20" viewBox="0 0 20 20" fill="none" xmlns="http://www.w3.org/2000/svg">
<g clip-path="url(#clip0)">
<path d="M6.5622 13.6903C7.38588 14.8517 8.20823 15.8903 8.75323 16.5593C8.83257 16.6567 8.9069 16.747 8.97889 16.834H7.33424C7.15014 16.834 7.00092 16.9832 7.00092 17.1673C7.00092 17.3514 7.15014 17.5006 7.33424 17.5006H12.6675C12.8516 17.5006 13.0009 17.3514 13.0009 17.1673C13.0009 16.9832 12.8516 16.834 12.6675 16.834H11.0229C11.0949 16.747 11.1692 16.6566 11.2489 16.5593C11.7936 15.8926 12.6156 14.8517 13.4396 13.6903C14.2571 12.5612 14.993 11.3752 15.6416 10.1413C16.3222 8.80465 16.6676 7.69499 16.6676 6.843C16.6699 5.07264 15.9674 3.3742 14.7152 2.12263C14.6316 2.03591 14.5077 2.00107 14.3911 2.0315C14.2746 2.06193 14.1835 2.15286 14.1529 2.26939C14.1223 2.38591 14.157 2.50986 14.2436 2.59361C15.3706 3.72033 16.0029 5.24928 16.0009 6.84296C16.0009 7.58898 15.6802 8.59695 15.0476 9.83864C14.4136 11.0439 13.6945 12.2024 12.8956 13.3053C12.0829 14.4517 11.2706 15.4787 10.7323 16.1387C10.5533 16.358 10.3923 16.552 10.2549 16.716C10.1908 16.7892 10.0982 16.8312 10.0009 16.8312C9.90362 16.8312 9.81105 16.7892 9.74694 16.716C9.6096 16.552 9.44862 16.358 9.2696 16.1387C8.73128 15.479 7.91893 14.452 7.10627 13.3053C6.3074 12.2024 5.58822 11.0439 4.95427 9.83864C4.32095 8.59695 4.00094 7.58898 4.00094 6.84296C4.00075 4.42854 5.44466 2.24814 7.66764 1.30595C9.16132 0.679615 10.844 0.679615 12.3377 1.30595C12.4473 1.35243 12.5735 1.33692 12.6686 1.26516C12.7637 1.19345 12.8133 1.07641 12.7988 0.958171C12.7842 0.839929 12.7077 0.738444 12.598 0.691959C9.2035 -0.739765 5.29107 0.850632 3.85829 4.24463C3.51083 5.06674 3.33262 5.95046 3.3343 6.84296C3.3343 7.69496 3.67965 8.80465 4.36032 10.143C5.00884 11.3763 5.74474 12.5618 6.5622 13.6903Z" fill="#1F2326"/>
<path d="M10.0007 3.834C10.1848 3.834 10.334 3.68478 10.334 3.50068C10.334 3.31658 10.1848 3.16736 10.0007 3.16736C8.41043 3.16732 7.0416 4.29068 6.73132 5.85038C6.42105 7.41007 7.25578 8.97172 8.72496 9.58031C10.1942 10.1889 11.8887 9.67488 12.7722 8.35265C13.6557 7.03042 13.4821 5.26819 12.3577 4.14369C12.274 4.05705 12.1501 4.02228 12.0335 4.05279C11.917 4.0833 11.826 4.17432 11.7954 4.29084C11.7649 4.4074 11.7997 4.53131 11.8863 4.61502C12.786 5.51459 12.9248 6.92433 12.2181 7.98214C11.5113 9.03996 10.1557 9.45121 8.98036 8.96441C7.805 8.47761 7.13718 7.22831 7.38531 5.98053C7.63344 4.73276 8.72848 3.83404 10.0007 3.834Z" fill="#1F2326"/>
<path d="M19.8749 18.3576L17.8249 14.6909C17.6395 14.3652 17.2927 14.1649 16.9179 14.1673H14.5422C14.3581 14.1673 14.2089 14.3165 14.2089 14.5006C14.2089 14.6847 14.3581 14.8339 14.5422 14.8339H16.9179C17.0513 14.8313 17.1758 14.9009 17.2435 15.0159L19.2929 18.6826C19.3487 18.778 19.3475 18.8963 19.2899 18.9906C19.2218 19.1031 19.0987 19.1705 18.9672 19.1673H1.03383C0.902504 19.1704 0.779535 19.103 0.711488 18.9906C0.653832 18.8963 0.652699 18.778 0.70848 18.6826L2.75782 15.0159C2.82544 14.9009 2.94982 14.8314 3.08314 14.8339H5.45881C5.64291 14.8339 5.79213 14.6847 5.79213 14.5006C5.79213 14.3165 5.64291 14.1673 5.45881 14.1673H3.08318C2.70817 14.1648 2.36106 14.365 2.17552 14.6909L0.125822 18.3576C-0.045077 18.6595 -0.0411316 19.0298 0.136174 19.328C0.322971 19.6455 0.665511 19.8386 1.03383 19.834H18.9672C19.3354 19.8384 19.6778 19.6454 19.8646 19.328C20.0419 19.0298 20.0458 18.6595 19.8749 18.3576Z" fill="#1F2326"/>
<path d="M16.334 15.834H15.0007C14.9349 15.8341 14.8706 15.8536 14.8157 15.89L13.8157 16.5567C13.6625 16.6589 13.6212 16.8659 13.7234 17.019C13.8255 17.1722 14.0325 17.2135 14.1857 17.1114L15.1007 16.5007H16.334C16.5181 16.5007 16.6674 16.3514 16.6674 16.1674C16.6674 15.9832 16.5181 15.834 16.334 15.834Z" fill="#1F2326"/>
<path d="M14.3337 18.1673C14.3337 18.3514 14.4829 18.5006 14.667 18.5006H17.3337C17.5178 18.5006 17.667 18.3514 17.667 18.1673C17.667 17.9832 17.5178 17.834 17.3337 17.834H14.667C14.4829 17.834 14.3337 17.9832 14.3337 18.1673Z" fill="#1F2326"/>
<path d="M6.00051 17.1674C6.14746 17.1675 6.27719 17.0715 6.31989 16.9308C6.36258 16.7902 6.30813 16.6382 6.18586 16.5567L5.18586 15.89C5.13094 15.8535 5.06645 15.834 5.00051 15.834H3.66718C3.48308 15.834 3.33386 15.9832 3.33386 16.1673C3.33386 16.3514 3.48312 16.5006 3.66718 16.5006H4.90051L5.81653 17.1113C5.87102 17.1477 5.93504 17.1672 6.00051 17.1674Z" fill="#1F2326"/>
<path d="M2.66749 17.834C2.48339 17.834 2.33417 17.9832 2.33417 18.1673C2.33417 18.3514 2.48339 18.5006 2.66749 18.5006H5.33418C5.51828 18.5006 5.6675 18.3514 5.6675 18.1673C5.6675 17.9832 5.51828 17.834 5.33418 17.834H2.66749Z" fill="#1F2326"/>
</g>
<defs>
<clipPath id="clip0">
<rect width="20" height="20" fill="white"/>
</clipPath>
</defs>
</svg>
