<svg width="20" height="20" viewBox="0 0 20 20" fill="none" xmlns="http://www.w3.org/2000/svg">
<g clip-path="url(#clip0)">
<path d="M19.8034 0.05134C19.6815 -0.0181913 19.5317 -0.0170194 19.411 0.0543868L12.2526 4.28736C12.0669 4.39716 12.0054 4.63669 12.1152 4.8224C12.225 5.00806 12.4645 5.06958 12.6503 4.95982L17.7863 1.92275L8.21963 11.849L3.4615 10.3933L9.67107 6.72146C9.85677 6.61161 9.9183 6.37208 9.80849 6.18638C9.69873 6.00072 9.45916 5.93911 9.27346 6.04896L2.30162 10.1716C2.16842 10.2504 2.09424 10.4003 2.11256 10.554C2.13088 10.7077 2.23818 10.8361 2.38615 10.8814L8.06853 12.6198L10.5754 17.1828C10.5781 17.1876 10.5808 17.1915 10.5835 17.1951C10.6254 17.2649 10.6881 17.3218 10.7663 17.3547C10.8152 17.3753 10.8667 17.3854 10.9178 17.3854C11.0179 17.3854 11.1164 17.3468 11.1908 17.2741L14.0734 14.4569L19.4955 16.1157C19.533 16.1272 19.5715 16.1328 19.6098 16.1328C19.6924 16.1328 19.7741 16.1066 19.8421 16.0562C19.9417 15.9826 20.0004 15.866 20.0004 15.7422V0.390637C20.0004 0.250363 19.9252 0.120832 19.8034 0.05134ZM10.5967 12.8606C10.5515 12.9259 10.5272 13.0035 10.5272 13.083V15.4725L8.81541 12.3567L16.3904 4.49689L10.5967 12.8606ZM11.3085 16.0668V13.611L13.2222 14.1965L11.3085 16.0668ZM19.2192 15.2142L11.5435 12.8659L19.2192 1.78532V15.2142Z" fill="#1F2326"/>
<path d="M6.42298 13.5772C6.2704 13.4246 6.02313 13.4246 5.87052 13.5772L2.22396 17.2237C2.07142 17.3763 2.07142 17.6236 2.22396 17.7762C2.30029 17.8525 2.40025 17.8906 2.50021 17.8906C2.60017 17.8906 2.70013 17.8525 2.77642 17.7762L6.42298 14.1296C6.57552 13.9771 6.57552 13.7298 6.42298 13.5772Z" fill="#1F2326"/>
<path d="M1.56551 18.4348C1.41293 18.2823 1.16566 18.2823 1.01309 18.4348L0.114648 19.3333C-0.0378906 19.4858 -0.0378906 19.7331 0.114648 19.8857C0.190938 19.962 0.290898 20.0001 0.390859 20.0001C0.49082 20.0001 0.590781 19.9619 0.66707 19.8857L1.56551 18.9872C1.71805 18.8347 1.71805 18.5874 1.56551 18.4348Z" fill="#1F2326"/>
<path d="M5.57203 19.3101C5.49941 19.2375 5.39863 19.1957 5.2959 19.1957C5.19273 19.1957 5.09238 19.2375 5.01973 19.3101C4.94707 19.3828 4.90527 19.4832 4.90527 19.5863C4.90527 19.689 4.94703 19.7898 5.01973 19.8625C5.09238 19.9351 5.19316 19.9769 5.2959 19.9769C5.39863 19.9769 5.49941 19.9351 5.57203 19.8625C5.64469 19.7898 5.68652 19.689 5.68652 19.5863C5.68652 19.4832 5.64473 19.3828 5.57203 19.3101Z" fill="#1F2326"/>
<path d="M8.47856 16.4037C8.3261 16.2512 8.07883 16.2512 7.92614 16.4037L5.99465 18.3352C5.84211 18.4877 5.84211 18.735 5.99465 18.8876C6.07094 18.9639 6.1709 19.002 6.27086 19.002C6.37083 19.002 6.47079 18.9638 6.54708 18.8876L8.47856 16.9561C8.6311 16.8036 8.6311 16.5563 8.47856 16.4037Z" fill="#1F2326"/>
<path d="M15.1441 16.2555C14.9915 16.103 14.7442 16.103 14.5916 16.2555L12.6549 18.1922C12.5024 18.3447 12.5024 18.5921 12.6549 18.7447C12.7312 18.8209 12.8312 18.8591 12.9311 18.8591C13.0311 18.8591 13.1311 18.8209 13.2073 18.7447L15.1441 16.8079C15.2966 16.6554 15.2966 16.4081 15.1441 16.2555Z" fill="#1F2326"/>
<path d="M11.0746 5.32466C11.0019 5.252 10.9011 5.21021 10.7984 5.21021C10.6957 5.21021 10.5949 5.252 10.5222 5.32466C10.4496 5.39731 10.4078 5.4981 10.4078 5.60122C10.4078 5.70395 10.4496 5.80435 10.5222 5.877C10.5949 5.95005 10.6957 5.99146 10.7984 5.99146C10.9011 5.99146 11.0019 5.95005 11.0746 5.877C11.1472 5.80435 11.189 5.70395 11.189 5.60122C11.189 5.4981 11.1472 5.39731 11.0746 5.32466Z" fill="#1F2326"/>
</g>
<defs>
<clipPath id="clip0">
<rect width="20" height="20" fill="white"/>
</clipPath>
</defs>
</svg>
