<svg width="20" height="19" viewBox="0 0 20 19" fill="none" xmlns="http://www.w3.org/2000/svg">
<path d="M10 0.599976C4.9313 0.599976 0.800049 4.15154 0.800049 8.59841C0.800049 11.1781 2.21255 13.425 4.38442 14.8922C4.3813 14.9781 4.38755 15.1187 4.27505 15.5375C4.13442 16.0578 3.85005 16.789 3.27505 17.614L2.86567 18.2H3.5813C6.0563 18.2 7.48911 16.5859 7.71099 16.3265C8.44849 16.5 9.2063 16.5937 10 16.5937C15.0672 16.5937 19.2 13.0422 19.2 8.59685C19.2 4.15154 15.0688 0.599976 10 0.599976ZM10 1.39998C14.6313 1.39998 18.4 4.6281 18.4 8.59841C18.4 12.5672 14.6313 15.7953 10 15.7953C9.29224 15.7953 8.60317 15.714 7.8938 15.5484L7.4188 15.4375L7.10317 15.8062C6.82974 16.1265 5.90942 17.0672 4.3938 17.3312C4.68442 16.8093 4.90317 16.2781 5.04536 15.7453C5.15786 15.3328 5.17817 15.1156 5.18286 14.925L5.20161 14.4797L4.8313 14.2297C2.77817 12.8406 1.60005 10.7875 1.60005 8.59841C1.60005 4.6281 5.3688 1.39998 10 1.39998ZM10 4.43904C9.20005 4.43904 8.56099 4.67966 8.12036 5.16091C7.64067 5.6406 7.44067 6.27966 7.40005 7.03904H8.40005C8.44067 6.59998 8.52036 6.19998 8.63911 5.96091C8.87974 5.52029 9.32036 5.27966 9.96099 5.27966C10.4407 5.27966 10.8391 5.39998 11.0391 5.67966C11.2391 5.92029 11.361 6.2406 11.361 6.59998C11.361 6.87966 11.2797 7.12029 11.1204 7.36091C11.0407 7.52029 10.9204 7.6406 10.8 7.76091L10.361 8.19998C9.92036 8.6406 9.64067 8.99998 9.52036 9.32029C9.40005 9.6406 9.32036 10.0797 9.32036 10.6H10.3204C10.3204 10.1203 10.3594 9.79998 10.4797 9.59997C10.6 9.35935 10.8407 9.07966 11.2 8.72029C11.7204 8.2406 12.0407 7.87966 12.2 7.63904C12.3594 7.39998 12.4391 7.07966 12.4391 6.67966C12.4391 6.03904 12.2 5.47966 11.761 5.07966C11.3204 4.63904 10.7204 4.43904 10 4.43904ZM9.32036 11.5203V12.6797H10.4V11.5203H9.32036Z" fill="#1F2326"/>
</svg>
