<svg width="32" height="32" viewBox="0 0 32 32" fill="none" xmlns="http://www.w3.org/2000/svg">
<g clip-path="url(#clip0)">
<path d="M29.8461 16.6152H19.0769C19.0741 14.7974 17.7512 13.2508 15.9557 12.9666C15.7351 11.5669 14.7322 10.4174 13.3754 10.0091C12.7901 8.0599 10.7354 6.95429 8.78637 7.53959C7.60068 7.89567 6.67299 8.82329 6.31691 10.0091C4.96006 10.4174 3.95714 11.5669 3.7366 12.9666C1.94114 13.2508 0.61814 14.7974 0.61537 16.6152C0.275524 16.6152 -1.41952e-05 16.8907 -1.41952e-05 17.2306V20.3075C-0.000168041 20.3897 0.0163704 20.4712 0.0486012 20.5469C0.514063 25.958 5.27799 29.9672 10.6891 29.5017C15.3128 29.104 19.0291 25.5279 19.6043 20.9229H29.8461C31.0357 20.9229 32 19.9586 32 18.7691C32 17.5795 31.0357 16.6152 29.8461 16.6152ZM4.30768 14.1537C4.64752 14.1537 4.92306 13.8781 4.92306 13.5383C4.92352 12.3527 5.77052 11.3367 6.9366 11.1229C7.18668 11.0764 7.38229 10.8807 7.42891 10.6306C7.67268 9.29659 8.95168 8.41282 10.2857 8.65659C11.2901 8.84013 12.0761 9.62613 12.2597 10.6306C12.3063 10.8807 12.5019 11.0763 12.752 11.1229C13.9195 11.3351 14.7684 12.3516 14.7692 13.5383C14.7692 13.8781 15.0448 14.1537 15.3846 14.1537C16.7441 14.1537 17.8461 15.2557 17.8461 16.6152H1.84614C1.84614 15.2557 2.94822 14.1537 4.30768 14.1537ZM29.8461 19.6921H19.0455C18.7209 19.6914 18.4516 19.943 18.4301 20.2669C18.1194 25.0061 14.0256 28.5959 9.28645 28.2851C5.22922 28.0191 1.91283 24.9478 1.3366 20.9229H11.0769C11.4168 20.9229 11.6923 20.6474 11.6923 20.3075C11.6923 19.9677 11.4168 19.6921 11.0769 19.6921H1.23076V17.846H29.8461C30.3559 17.846 30.7692 18.2593 30.7692 18.7691C30.7692 19.2789 30.3559 19.6921 29.8461 19.6921Z" fill="#1F2326"/>
<path d="M7.9999 12.3076H6.76913V13.5384H7.9999V12.3076Z" fill="#1F2326"/>
<path d="M9.84611 14.1537H8.61533V15.3845H9.84611V14.1537Z" fill="#1F2326"/>
<path d="M6.76923 14.7692H5.53846V15.9999H6.76923V14.7692Z" fill="#1F2326"/>
<path d="M10.4616 9.84607H9.23087V11.0768H10.4616V9.84607Z" fill="#1F2326"/>
<path d="M14.1539 14.7692H12.9231V15.9999H14.1539V14.7692Z" fill="#1F2326"/>
<path d="M12.3076 12.3076H11.0769V13.5384H12.3076V12.3076Z" fill="#1F2326"/>
<path d="M15.9999 19.6921H15.3845C15.0447 19.6921 14.7691 19.9677 14.7691 20.3075C14.7691 20.6474 15.0447 20.9229 15.3845 20.9229H15.9999C16.3397 20.9229 16.6153 20.6474 16.6153 20.3075C16.6153 19.9677 16.3397 19.6921 15.9999 19.6921Z" fill="#1F2326"/>
<path d="M12.3078 4.92296H12.9232V5.53835C12.9232 5.87819 13.1987 6.15373 13.5386 6.15373C13.8784 6.15373 14.154 5.87819 14.154 5.53835V4.92296H14.7693C15.1092 4.92296 15.3847 4.64743 15.3847 4.30758C15.3847 3.96773 15.1092 3.69219 14.7693 3.69219H14.154V3.07681C14.154 2.73696 13.8784 2.46143 13.5386 2.46143C13.1987 2.46143 12.9232 2.73696 12.9232 3.07681V3.69219H12.3078C11.968 3.69219 11.6924 3.96773 11.6924 4.30758C11.6924 4.64743 11.968 4.92296 12.3078 4.92296Z" fill="#1F2326"/>
<path d="M16.6154 7.99987H17.2308V8.61525C17.2308 8.9551 17.5063 9.23063 17.8462 9.23063C18.186 9.23063 18.4615 8.9551 18.4615 8.61525V7.99987H19.0769C19.4168 7.99987 19.6923 7.72433 19.6923 7.38448C19.6923 7.04464 19.4168 6.7691 19.0769 6.7691H18.4615V6.15371C18.4615 5.81387 18.186 5.53833 17.8462 5.53833C17.5063 5.53833 17.2308 5.81387 17.2308 6.15371V6.7691H16.6154C16.2755 6.7691 16 7.04464 16 7.38448C16 7.72433 16.2755 7.99987 16.6154 7.99987Z" fill="#1F2326"/>
</g>
<defs>
<clipPath id="clip0">
<rect width="32" height="32" fill="white"/>
</clipPath>
</defs>
</svg>
