<svg width="86" height="120" viewBox="0 0 86 120" fill="none" xmlns="http://www.w3.org/2000/svg">
<path fill-rule="evenodd" clip-rule="evenodd" d="M4 0C1.79086 0 0 1.79086 0 4V108C0 110.209 1.79086 112 4 112H37.3038L41.634 119.5C42.0189 120.167 42.9811 120.167 43.366 119.5L47.6962 112H82C84.2091 112 86 110.209 86 108V4C86 1.79086 84.2091 0 82 0H4Z" fill="#1F2326"/>
<g clip-path="url(#clip0)">
<path d="M17.8301 33.9624L43.0565 16.8445L68.2827 33.9624V69.099H17.8301V33.9624Z" fill="#CDECF1"/>
<path d="M44.8583 18.0672L43.0565 16.8445L17.8301 33.9624V69.099H21.4339V33.9624L44.8583 18.0672Z" fill="#49C7DB"/>
<path d="M59.2729 38.4673H26.8392V69.0992H59.2729V38.4673Z" fill="#74757B"/>
<path d="M59.2729 38.4673H26.8392V69.0992H59.2729V38.4673Z" fill="#74757B"/>
<path d="M30.4429 38.4673H26.8392V69.0992H30.4429V38.4673Z" fill="#606268"/>
<path d="M61.0747 34.8633H25.0372V38.467H61.0747V34.8633Z" fill="#D7D8D9"/>
<path d="M37.6505 47.4766H26.8392V58.2878H37.6505V47.4766Z" fill="#E4D3A2"/>
<path d="M29.542 47.4766H26.8392V58.2878H29.542V47.4766Z" fill="#F4DF9A"/>
<path d="M34.0467 47.4766H30.4429V52.8822H34.0467V47.4766Z" fill="#E1A527"/>
<path d="M37.6505 58.2878H26.8392V69.0991H37.6505V58.2878Z" fill="#E4D3A2"/>
<path d="M29.542 58.2878H26.8392V69.0991H29.542V58.2878Z" fill="#F4DF9A"/>
<path d="M34.0467 58.2878H30.4429V63.6934H34.0467V58.2878Z" fill="#E1A527"/>
<path d="M48.4619 58.2878H37.6506V69.0991H48.4619V58.2878Z" fill="#E4D3A2"/>
<path d="M40.3535 58.2878H37.6506V69.0991H40.3535V58.2878Z" fill="#F4DF9A"/>
<path d="M44.8579 58.2878H41.2542V63.6934H44.8579V58.2878Z" fill="#E1A527"/>
<path d="M68.7289 33.2635L43.5167 16.1457C43.2305 15.9514 42.8616 15.9515 42.5751 16.1457L17.3242 33.2635C17.0926 33.4208 16.9293 33.6825 16.9293 33.9625V69.0991C16.9293 69.5656 17.3637 70 17.8302 70H68.2827C68.7493 70 69.071 69.5656 69.071 69.0991V33.9625C69.0711 33.6825 68.9606 33.4208 68.7289 33.2635ZM25.8261 37.6789V35.7644H60.1744V37.6789H25.8261ZM31.2317 48.3775H33.1461V52.0939H31.2317V48.3775ZM30.4434 53.7831H34.0472C34.5136 53.7831 34.8354 53.3487 34.8354 52.8822V48.3775H36.7499V57.4995H34.047H30.4433H27.6279V48.3775H29.5424V52.8822C29.5424 53.3486 29.9769 53.7831 30.4434 53.7831ZM31.2317 59.1887H33.1461V62.9051H31.2317V59.1887ZM27.6279 59.1887H29.5424V63.6934C29.5424 64.1599 29.9768 64.5943 30.4433 64.5943H34.047C34.5135 64.5943 34.8353 64.1599 34.8353 63.6934V59.1887H36.7498V68.3107H27.6278V59.1887H27.6279ZM38.4392 68.3107V59.1887H40.3537V63.6934C40.3537 64.1599 40.7881 64.5943 41.2546 64.5943H44.8583C45.3249 64.5943 45.6466 64.1599 45.6466 63.6934V59.1887H47.5611V68.3107H38.4392ZM42.0429 59.1887H43.9574V62.9051H42.0429V59.1887ZM67.3818 68.3107H60.0617V50.1793C60.0617 49.7129 59.6836 49.3348 59.2171 49.3348C58.7505 49.3348 58.3725 49.713 58.3725 50.1793V68.3107H49.2505V58.2878C49.2505 57.8213 48.9287 57.4995 48.4622 57.4995H38.4393V47.4766C38.4393 47.0101 38.1174 46.6883 37.651 46.6883H27.6281V39.3682H58.3727V46.5757C58.3727 47.0422 58.7508 47.4203 59.2173 47.4203C59.6839 47.4203 60.0619 47.0421 60.0619 46.5757V39.3682H61.0754C61.542 39.3682 61.8637 38.9337 61.8637 38.4673V34.8635C61.8637 34.397 61.5419 34.0752 61.0754 34.0752H25.0377C24.5712 34.0752 24.1368 34.3971 24.1368 34.8635V38.4673C24.1368 38.9337 24.5712 39.3682 25.0377 39.3682H25.9386V68.3108H18.6186V34.4101L43.0002 17.8654L67.3818 34.4101V68.3107Z" fill="black"/>
<path d="M38.6076 24.1085C38.6076 24.575 38.9858 24.9531 39.4522 24.9531H46.6597C47.1263 24.9531 47.5043 24.5749 47.5043 24.1085C47.5043 23.6421 47.1262 23.2639 46.6597 23.2639H39.4522C38.9857 23.2639 38.6076 23.642 38.6076 24.1085Z" fill="black"/>
<path d="M46.6597 26.8677H39.4522C38.9857 26.8677 38.6076 27.2459 38.6076 27.7123C38.6076 28.1788 38.9858 28.5569 39.4522 28.5569H46.6597C47.1263 28.5569 47.5043 28.1787 47.5043 27.7123C47.5043 27.2458 47.1263 26.8677 46.6597 26.8677Z" fill="black"/>
<path d="M46.6597 30.4714H39.4522C38.9857 30.4714 38.6076 30.8496 38.6076 31.316C38.6076 31.7824 38.9858 32.1606 39.4522 32.1606H46.6597C47.1263 32.1606 47.5043 31.7824 47.5043 31.316C47.5043 30.8496 47.1263 30.4714 46.6597 30.4714Z" fill="black"/>
<path d="M30.4436 56.4858H34.0473C34.5138 56.4858 34.8919 56.1076 34.8919 55.6412C34.8919 55.1747 34.5137 54.7966 34.0473 54.7966H30.4436C29.9771 54.7966 29.599 55.1748 29.599 55.6412C29.5989 56.1076 29.9771 56.4858 30.4436 56.4858Z" fill="black"/>
<path d="M34.0473 65.6079H30.4436C29.9771 65.6079 29.599 65.9861 29.599 66.4525C29.599 66.919 29.9772 67.2971 30.4436 67.2971H34.0473C34.5138 67.2971 34.8919 66.9189 34.8919 66.4525C34.8919 65.986 34.5137 65.6079 34.0473 65.6079Z" fill="black"/>
<path d="M44.858 65.6079H41.2542C40.7877 65.6079 40.4096 65.9861 40.4096 66.4525C40.4096 66.919 40.7878 67.2971 41.2542 67.2971H44.858C45.3246 67.2971 45.7026 66.9189 45.7026 66.4525C45.7027 65.986 45.3246 65.6079 44.858 65.6079Z" fill="black"/>
</g>
<path d="M28.376 92.21C27.6947 92.21 27.074 92.098 26.514 91.874C25.954 91.65 25.4733 91.3233 25.072 90.894C24.6707 90.4647 24.358 89.9373 24.134 89.312C23.9193 88.6773 23.812 87.954 23.812 87.142C23.812 86.33 23.9333 85.6113 24.176 84.986C24.428 84.3513 24.764 83.8193 25.184 83.39C25.604 82.9607 26.094 82.634 26.654 82.41C27.214 82.186 27.8113 82.074 28.446 82.074C28.8473 82.074 29.2067 82.102 29.524 82.158C29.8507 82.214 30.1307 82.2793 30.364 82.354C30.6067 82.4287 30.8027 82.5033 30.952 82.578C31.1013 82.6527 31.204 82.7087 31.26 82.746L30.868 83.866C30.784 83.81 30.6627 83.7493 30.504 83.684C30.3453 83.6187 30.1633 83.5533 29.958 83.488C29.762 83.4227 29.5427 83.3713 29.3 83.334C29.0667 83.2873 28.8287 83.264 28.586 83.264C28.0727 83.264 27.6107 83.3527 27.2 83.53C26.7893 83.7073 26.4393 83.964 26.15 84.3C25.8607 84.636 25.6367 85.0467 25.478 85.532C25.3287 86.008 25.254 86.5447 25.254 87.142C25.254 87.7207 25.3193 88.248 25.45 88.724C25.59 89.2 25.7953 89.6107 26.066 89.956C26.3367 90.292 26.6727 90.5533 27.074 90.74C27.4847 90.9267 27.9607 91.02 28.502 91.02C29.1273 91.02 29.6453 90.9547 30.056 90.824C30.4667 90.6933 30.7747 90.5767 30.98 90.474L31.33 91.594C31.2647 91.6407 31.148 91.7013 30.98 91.776C30.812 91.8413 30.602 91.9067 30.35 91.972C30.098 92.0373 29.804 92.0933 29.468 92.14C29.132 92.1867 28.768 92.21 28.376 92.21ZM35.4616 88.038C35.751 88.2433 36.0636 88.5047 36.3996 88.822C36.7356 89.13 37.0623 89.466 37.3796 89.83C37.7063 90.194 38.0096 90.5673 38.2896 90.95C38.5696 91.3233 38.8076 91.6733 39.0036 92H37.4636C37.2583 91.6827 37.0156 91.3607 36.7356 91.034C36.465 90.698 36.1803 90.376 35.8816 90.068C35.583 89.76 35.2796 89.4753 34.9716 89.214C34.6636 88.9527 34.3743 88.7333 34.1036 88.556V92H32.8016V84.72H34.1036V87.842C34.3276 87.6273 34.5843 87.38 34.8736 87.1C35.163 86.8107 35.4523 86.5213 35.7416 86.232C36.0403 85.9333 36.3156 85.6533 36.5676 85.392C36.8196 85.1213 37.025 84.8973 37.1836 84.72H38.6956C38.4903 84.944 38.2476 85.2007 37.9676 85.49C37.697 85.77 37.4123 86.0593 37.1136 86.358C36.8243 86.6567 36.535 86.9553 36.2456 87.254C35.9563 87.5433 35.695 87.8047 35.4616 88.038ZM43.156 85.812C43.156 86.12 43.1466 86.4513 43.128 86.806C43.1186 87.1513 43.0953 87.5013 43.058 87.856C43.0206 88.2013 42.9693 88.5467 42.904 88.892C42.8386 89.228 42.7546 89.5453 42.652 89.844C42.5493 90.1427 42.4186 90.4227 42.26 90.684C42.1106 90.9453 41.924 91.1787 41.7 91.384C41.476 91.58 41.2146 91.748 40.916 91.888C40.6173 92.0187 40.2673 92.1027 39.866 92.14L39.684 91.048C40.1413 90.9547 40.5006 90.782 40.762 90.53C41.0326 90.278 41.2473 89.97 41.406 89.606C41.546 89.2887 41.6486 88.9293 41.714 88.528C41.7793 88.1267 41.826 87.7113 41.854 87.282C41.882 86.8433 41.896 86.4047 41.896 85.966C41.9053 85.5273 41.91 85.112 41.91 84.72H46.754V92H45.452V85.812H43.156ZM51.4531 91.062C51.7611 91.062 52.0318 91.0573 52.2651 91.048C52.5078 91.0293 52.7085 91.0013 52.8671 90.964V88.794C52.7738 88.7473 52.6198 88.71 52.4051 88.682C52.1998 88.6447 51.9478 88.626 51.6491 88.626C51.4531 88.626 51.2431 88.64 51.0191 88.668C50.8045 88.696 50.6038 88.7567 50.4171 88.85C50.2398 88.934 50.0905 89.0553 49.9691 89.214C49.8478 89.3633 49.7871 89.564 49.7871 89.816C49.7871 90.2827 49.9365 90.6093 50.2351 90.796C50.5338 90.9733 50.9398 91.062 51.4531 91.062ZM51.3411 84.538C51.8638 84.538 52.3025 84.608 52.6571 84.748C53.0211 84.8787 53.3105 85.07 53.5251 85.322C53.7491 85.5647 53.9078 85.8587 54.0011 86.204C54.0945 86.54 54.1411 86.9133 54.1411 87.324V91.874C54.0291 91.8927 53.8705 91.9207 53.6651 91.958C53.4691 91.986 53.2451 92.014 52.9931 92.042C52.7411 92.07 52.4658 92.0933 52.1671 92.112C51.8778 92.14 51.5885 92.154 51.2991 92.154C50.8885 92.154 50.5105 92.112 50.1651 92.028C49.8198 91.944 49.5211 91.8133 49.2691 91.636C49.0171 91.4493 48.8211 91.2067 48.6811 90.908C48.5411 90.6093 48.4711 90.25 48.4711 89.83C48.4711 89.4287 48.5505 89.0833 48.7091 88.794C48.8771 88.5047 49.1011 88.2713 49.3811 88.094C49.6611 87.9167 49.9878 87.786 50.3611 87.702C50.7345 87.618 51.1265 87.576 51.5371 87.576C51.6678 87.576 51.8031 87.5853 51.9431 87.604C52.0831 87.6133 52.2138 87.632 52.3351 87.66C52.4658 87.6787 52.5778 87.6973 52.6711 87.716C52.7645 87.7347 52.8298 87.7487 52.8671 87.758V87.394C52.8671 87.1793 52.8438 86.9693 52.7971 86.764C52.7505 86.5493 52.6665 86.3627 52.5451 86.204C52.4238 86.036 52.2558 85.9053 52.0411 85.812C51.8358 85.7093 51.5651 85.658 51.2291 85.658C50.7998 85.658 50.4218 85.6907 50.0951 85.756C49.7778 85.812 49.5398 85.8727 49.3811 85.938L49.2271 84.86C49.3951 84.7853 49.6751 84.7153 50.0671 84.65C50.4591 84.5753 50.8838 84.538 51.3411 84.538ZM55.4076 90.936H56.1916C56.4996 90.488 56.7423 90.026 56.9196 89.55C57.1063 89.074 57.2463 88.584 57.3396 88.08C57.4329 87.5667 57.4936 87.0347 57.5216 86.484C57.5496 85.924 57.5683 85.336 57.5776 84.72H62.3516V90.936H63.3316V94.03H62.0996V92H56.6396V94.03H55.4076V90.936ZM61.0496 90.936V85.812H58.7676C58.7583 86.2507 58.7349 86.694 58.6976 87.142C58.6603 87.5807 58.5996 88.0193 58.5156 88.458C58.4316 88.8873 58.3103 89.312 58.1516 89.732C58.0023 90.1427 57.8109 90.544 57.5776 90.936H61.0496Z" fill="white"/>
<defs>
<clipPath id="clip0">
<rect width="54" height="54" fill="white" transform="translate(16 16)"/>
</clipPath>
</defs>
</svg>
