<svg width="30" height="30" viewBox="0 0 30 30" fill="none" xmlns="http://www.w3.org/2000/svg">
<g clip-path="url(#clip0)">
<path d="M28.531 25.4612C29.4617 24.2389 29.9331 22.7966 29.9331 21.1687C29.9331 18.0774 28.2342 13.9239 25.6049 10.5873C25.11 9.95922 24.5872 9.3686 24.045 8.8212C24.4638 8.28442 24.6831 7.70243 24.6831 7.09582C24.6831 5.7545 23.6147 4.533 21.6746 3.65625C20.5108 3.13026 19.1027 2.75844 17.5711 2.56186L15.4272 0.253025C15.3168 0.1342 15.1619 0.0666504 14.9997 0.0666504C14.8376 0.0666504 14.6826 0.1342 14.5723 0.253025L12.4284 2.56186C10.8967 2.75844 9.48876 3.13032 8.32489 3.65625C6.38478 4.53294 5.31641 5.7545 5.31641 7.09582C5.31641 7.70266 5.5358 8.28483 5.95498 8.82184C5.4126 9.36907 4.88958 9.95917 4.39456 10.5874C1.76531 13.9239 0.0664062 18.0774 0.0664062 21.1687C0.0664062 22.7966 0.537798 24.2389 1.46851 25.4612C1.46851 25.4612 0.10584 29.1389 0.102748 29.1472C-0.0475187 29.5527 0.310356 30.0074 0.757773 29.9232L6.67546 28.8084C8.97583 29.5549 11.7752 29.9333 14.9997 29.9333C18.1921 29.9333 20.9698 29.5618 23.2587 28.829C23.2587 28.829 29.2371 29.9223 29.2448 29.9237C29.6688 30.0013 30.0548 29.5739 29.8967 29.1473L28.531 25.4612ZM14.9997 1.50725L19.9208 6.80683C16.6159 8.71882 13.3836 8.71882 10.0786 6.80683L14.9997 1.50725ZM8.80532 4.71938C9.49004 4.40992 10.2719 4.15932 11.1198 3.97113C11.1198 3.97113 8.74944 6.52374 8.739 6.535C8.50216 6.79003 8.55863 7.23378 8.84989 7.42196C10.8903 8.74035 12.945 9.39952 14.9998 9.39952C17.0545 9.39952 19.1093 8.74035 21.1496 7.42202C21.4421 7.23308 21.4972 6.78974 21.2606 6.53506L18.8792 3.97049C19.7275 4.15862 20.5093 4.4098 21.1942 4.71938C22.67 5.38636 23.5164 6.25255 23.5164 7.09582C23.5164 7.93908 22.67 8.80527 21.1942 9.4722C19.5493 10.2156 17.3493 10.625 14.9997 10.625C12.6501 10.625 10.4502 10.2156 8.80532 9.4722C7.32949 8.80522 6.48307 7.93908 6.48307 7.09582C6.48307 6.25255 7.32949 5.38636 8.80532 4.71938ZM23.0361 27.6747C20.9287 28.6308 18.1345 28.7666 14.9997 28.7666C10.5664 28.7666 6.77783 27.624 6.71518 27.624C6.67907 27.624 1.55496 28.5858 1.55496 28.5858L2.35325 26.4312C2.47551 26.5443 2.60221 26.6552 2.7344 26.7633C2.971 26.957 3.35075 26.9314 3.55532 26.6815C3.75937 26.4322 3.72268 26.0647 3.47342 25.8606C2.0491 24.6946 1.23307 23.0087 1.23307 21.1687C1.23307 18.3231 2.83368 14.453 5.31092 11.3094C5.70467 10.8097 6.20138 10.2295 6.7888 9.63548C7.21475 9.9636 7.72843 10.2658 8.32483 10.5354C10.1174 11.3455 12.488 11.7916 14.9997 11.7916C16.2592 11.7916 17.483 11.6794 18.6164 11.4655V15.6416C18.6164 15.9638 18.8776 16.225 19.1997 16.225C19.5219 16.225 19.7831 15.9638 19.7831 15.6416V11.2003C20.189 11.0915 20.579 10.9685 20.9497 10.8316V14.65C20.9497 14.9715 21.2117 15.2334 21.5331 15.2334C21.8545 15.2334 22.1164 14.9715 22.1164 14.65V10.3216C22.5284 10.109 22.8943 9.87937 23.2111 9.63518C23.7988 10.2294 24.2947 10.8097 24.6886 11.3095C27.1658 14.453 28.7664 18.3231 28.7664 21.1686C28.7664 22.97 27.938 24.6939 26.5531 25.8384C26.3047 26.0436 26.2698 26.4113 26.475 26.6596C26.6701 26.8959 27.0471 26.9436 27.2963 26.7378C27.4173 26.6378 27.5337 26.5355 27.6464 26.4315L28.4468 28.5918C28.4468 28.5917 23.4581 27.4833 23.0361 27.6747Z" fill="#1F2326"/>
<path d="M20.2497 19.3457H9.74974C9.42762 19.3457 9.1664 19.6069 9.1664 19.929V24.5957C9.1664 24.9178 9.42762 25.179 9.74974 25.179H20.2497C20.5719 25.179 20.8331 24.9178 20.8331 24.5957V19.929C20.8331 19.6069 20.5719 19.3457 20.2497 19.3457ZM19.6664 24.0124H10.3331V20.5124H19.6664V24.0124Z" fill="#1F2326"/>
<path d="M17.9165 21.6499C17.5951 21.6499 17.3331 21.9118 17.3331 22.2332C17.3331 22.5547 17.5951 22.8166 17.9165 22.8166C18.2379 22.8166 18.4998 22.5547 18.4998 22.2332C18.4998 21.9118 18.2379 21.6499 17.9165 21.6499Z" fill="#1F2326"/>
<path d="M15.583 21.6499H12.083C11.7609 21.6499 11.4997 21.9118 11.4997 22.2332C11.4997 22.5547 11.7609 22.8166 12.083 22.8166H15.583C15.9044 22.8166 16.1663 22.5547 16.1663 22.2332C16.1663 21.9118 15.9044 21.6499 15.583 21.6499Z" fill="#1F2326"/>
<path d="M21.533 16.3999C21.2116 16.3999 20.9497 16.6618 20.9497 16.9832C20.9497 17.3047 21.2116 17.5666 21.533 17.5666C21.8544 17.5666 22.1163 17.3047 22.1163 16.9832C22.1163 16.6618 21.8544 16.3999 21.533 16.3999Z" fill="#1F2326"/>
<path d="M6.826 24.7257C6.00525 24.265 5.37642 23.7026 4.95875 23.0539C4.51542 22.3633 4.29958 21.5841 4.29783 20.6707C4.29719 20.3199 4.17633 19.9292 3.73783 19.9145C3.30133 19.8998 3.13117 20.2891 3.13117 20.6705C3.13012 21.7268 3.40271 22.7949 3.97758 23.6857C4.50025 24.4971 5.26669 25.1894 6.25538 25.743C6.53445 25.8993 6.89338 25.7974 7.04942 25.5197C7.20692 25.2391 7.10653 24.8832 6.826 24.7257Z" fill="#1F2326"/>
<path d="M26.2576 20.0869C25.9355 20.0869 25.6742 20.3481 25.6742 20.6702C25.6742 22.4456 24.8473 23.7721 23.1463 24.7257C22.8654 24.8832 22.7652 25.2386 22.9226 25.5196C23.0765 25.7944 23.4439 25.8964 23.7167 25.7433C25.7898 24.5812 26.8409 22.8744 26.8409 20.6702C26.8409 20.3481 26.5797 20.0869 26.2576 20.0869Z" fill="#1F2326"/>
<path d="M16.1665 5.90002C15.8444 5.90002 15.5831 6.1613 15.5831 6.48336C15.5831 6.8053 15.8444 7.06669 16.1665 7.06669C16.4885 7.06669 16.7498 6.80536 16.7498 6.48336C16.7498 6.16136 16.4885 5.90002 16.1665 5.90002Z" fill="#1F2326"/>
<path d="M13.833 5.90002C13.5109 5.90002 13.2497 6.1613 13.2497 6.48336C13.2497 6.8053 13.5109 7.06669 13.833 7.06669C14.155 7.06669 14.4163 6.80536 14.4163 6.48336C14.4163 6.16136 14.155 5.90002 13.833 5.90002Z" fill="#1F2326"/>
<path d="M4.20801 18.7917C4.53017 18.7917 4.79134 18.5305 4.79134 18.2083C4.79134 17.8862 4.53017 17.625 4.20801 17.625C3.88584 17.625 3.62467 17.8862 3.62467 18.2083C3.62467 18.5305 3.88584 18.7917 4.20801 18.7917Z" fill="#1F2326"/>
<path d="M14.9997 5.19999C15.3219 5.19999 15.5831 4.93882 15.5831 4.61666C15.5831 4.29449 15.3219 4.03333 14.9997 4.03333C14.6776 4.03333 14.4164 4.29449 14.4164 4.61666C14.4164 4.93882 14.6776 5.19999 14.9997 5.19999Z" fill="#1F2326"/>
</g>
<defs>
<clipPath id="clip0">
<rect width="29.8667" height="29.8667" fill="white" transform="translate(0.0664062 0.0666504)"/>
</clipPath>
</defs>
</svg>
