<svg width="20" height="20" viewBox="0 0 20 20" fill="none" xmlns="http://www.w3.org/2000/svg">
<path d="M18.5745 13.2395C18.564 13.1335 18.5299 13.0312 18.4747 12.9402C18.5388 12.8322 18.5732 12.7093 18.5745 12.5838V1.62511C18.5745 1.23145 18.2554 0.912354 17.8617 0.912354H2.13471C1.74105 0.912354 1.42195 1.23145 1.42195 1.62511V12.5838C1.42324 12.7093 1.45768 12.8322 1.52174 12.9402C1.46779 13.0315 1.43492 13.1338 1.42552 13.2395L0 18.2787V18.3749C0 18.7686 0.319093 19.0877 0.712758 19.0877H19.2872C19.6809 19.0877 20 18.7686 20 18.3749L18.5745 13.2395ZM2.13471 1.62511H17.8617V12.5838H2.13471V1.62511ZM8.50321 18.3749L8.69565 16.9815H11.3293L11.4897 18.3749H8.50321ZM12.2095 18.3749L12.0385 16.9067C12.0052 16.5382 11.6956 16.2565 11.3257 16.258H8.69922C8.33059 16.2564 8.02147 16.5361 7.98646 16.9031L7.78689 18.3678H0.72345L2.12046 13.3785V13.2823H17.8617L19.2872 18.3607L12.2095 18.3749Z" fill="#1F2326"/>
<path d="M16.6573 2.31641H3.33941C3.1426 2.31641 2.98303 2.47598 2.98303 2.67279V11.5359C2.98303 11.7327 3.1426 11.8923 3.33941 11.8923H16.6573C16.8541 11.8923 17.0137 11.7327 17.0137 11.5359V2.67279C17.0137 2.47598 16.8541 2.31641 16.6573 2.31641ZM3.69579 11.1831V3.02916H16.3009V11.1831H3.69579Z" fill="#1F2326"/>
<path d="M16.9917 13.6814H3.00384C2.80703 13.6814 2.64746 13.841 2.64746 14.0378C2.64746 14.2346 2.80703 14.3942 3.00384 14.3942H16.9917C17.1885 14.3942 17.3481 14.2346 17.3481 14.0378C17.3481 13.841 17.1885 13.6814 16.9917 13.6814Z" fill="#1F2326"/>
<path d="M17.6091 15.196H2.38812C2.19131 15.196 2.03174 15.3556 2.03174 15.5524C2.03174 15.7492 2.19131 15.9088 2.38812 15.9088H17.6091C17.8059 15.9088 17.9655 15.7492 17.9655 15.5524C17.9655 15.3556 17.8059 15.196 17.6091 15.196Z" fill="#1F2326"/>
</svg>
