<svg width="32" height="32" viewBox="0 0 32 32" fill="none" xmlns="http://www.w3.org/2000/svg">
<path d="M7.46669 21.0667C5.70188 21.0667 4.26669 22.5018 4.26669 24.2667C4.26669 26.0315 5.70188 27.4667 7.46669 27.4667C9.23151 27.4667 10.6667 26.0315 10.6667 24.2667C10.6667 22.5018 9.23144 21.0667 7.46669 21.0667ZM7.46669 26.4C6.29013 26.4 5.33338 25.4432 5.33338 24.2667C5.33338 23.0901 6.29019 22.1333 7.46669 22.1333C8.64319 22.1333 9.60001 23.0902 9.60001 24.2667C9.60001 25.4432 8.64319 26.4 7.46669 26.4Z" fill="#1F2326"/>
<path d="M25.6001 21.0667C23.8353 21.0667 22.4001 22.5018 22.4001 24.2667C22.4001 26.0315 23.8353 27.4667 25.6001 27.4667C27.3649 27.4667 28.8001 26.0315 28.8001 24.2667C28.8001 22.5018 27.3649 21.0667 25.6001 21.0667ZM25.6001 26.4C24.4235 26.4 23.4668 25.4432 23.4668 24.2667C23.4668 23.0901 24.4236 22.1333 25.6001 22.1333C26.7766 22.1333 27.7334 23.0902 27.7334 24.2667C27.7334 25.4432 26.7766 26.4 25.6001 26.4Z" fill="#1F2326"/>
<path d="M31.9152 18.1115L27.1152 10.6448C27.0171 10.4923 26.848 10.4 26.6666 10.4H20.8C20.5051 10.4 20.2667 10.639 20.2667 10.9333V24.2667C20.2667 24.5616 20.5051 24.8 20.8 24.8H22.9333V23.7333H21.3333V11.4667H26.3754L30.9333 18.5568V23.7334H28.2666V24.8H31.4666C31.7616 24.8 31.9999 24.5617 31.9999 24.2667V18.4C32 18.2982 31.9707 18.1973 31.9152 18.1115Z" fill="#1F2326"/>
<path d="M23.4668 17.3333V13.6H27.7335V12.5333H22.9335C22.6386 12.5333 22.4002 12.7723 22.4002 13.0666V17.8666C22.4002 18.1616 22.6386 18.4 22.9335 18.4H30.9335V17.3333H23.4668V17.3333Z" fill="#1F2326"/>
<path d="M20.8 6.66675H0.533312C0.238937 6.66675 0 6.90569 0 7.20006V24.2668C0 24.5617 0.238937 24.8001 0.533312 24.8001H4.8V23.7334H1.06669V7.73337H20.2667V23.7334H10.1333V24.8001H20.8C21.0949 24.8001 21.3333 24.5617 21.3333 24.2668V7.20006C21.3333 6.90569 21.0949 6.66675 20.8 6.66675Z" fill="#1F2326"/>
<path d="M3.73325 21.6H0.533249V22.6667H3.73325V21.6Z" fill="#1F2326"/>
<path d="M20.2665 21.6H11.1998V22.6667H20.2665V21.6Z" fill="#1F2326"/>
<path d="M31.4665 21.6H29.3332V22.6667H31.4665V21.6Z" fill="#1F2326"/>
<path d="M20.8001 8.79993H2.13339V9.86661H20.8001V8.79993Z" fill="#1F2326"/>
<path d="M7.99982 23.7333H6.93314V24.8H7.99982V23.7333Z" fill="#1F2326"/>
<path d="M26.1335 23.7333H25.0668V24.8H26.1335V23.7333Z" fill="#1F2326"/>
<path d="M9.60008 4.53333H2.13339V5.60001H9.60008V4.53333Z" fill="#1F2326"/>
<path d="M1.06669 4.53333H0V5.60001H1.06669V4.53333Z" fill="#1F2326"/>
</svg>
