<svg width="20" height="20" viewBox="0 0 20 20" fill="none" xmlns="http://www.w3.org/2000/svg">
<path d="M4 1C3.17236 1 2.5 1.57631 2.5 2.28571V2.92857H2.125C1.50537 2.92857 1 3.36175 1 3.89286C1 4.42397 1.50537 4.85714 2.125 4.85714H2.5V5.5H2.125C1.50537 5.5 1 5.93318 1 6.46429C1 6.9954 1.50537 7.42857 2.125 7.42857H2.5V8.07143H2.125C1.50537 8.07143 1 8.5046 1 9.03571C1 9.56682 1.50537 10 2.125 10H2.5V10.6429H2.125C1.50537 10.6429 1 11.076 1 11.6071C1 12.1383 1.50537 12.5714 2.125 12.5714H2.5V13.2143H2.125C1.50537 13.2143 1 13.6475 1 14.1786C1 14.7097 1.50537 15.1429 2.125 15.1429H2.5V18.0357C2.5 18.5668 3.00537 19 3.625 19H17.125C17.7446 19 18.25 18.5668 18.25 18.0357V17.6553C18.6851 17.5222 19 17.1681 19 16.75V1.96429C19 1.43318 18.4946 1 17.875 1H4ZM4 1.64286H17.875C18.0815 1.64286 18.25 1.78725 18.25 1.96429V15.1429C18.042 15.1429 17.875 15.286 17.875 15.4643V16.1071C17.875 16.2854 18.042 16.4286 18.25 16.4286V16.75C18.25 16.927 18.0815 17.0714 17.875 17.0714H3.625C3.50781 17.0714 3.37891 17.0928 3.25 17.1367V16.4286C3.45801 16.4286 3.625 16.2854 3.625 16.1071V15.4643C3.625 15.286 3.45801 15.1429 3.25 15.1429V13.8571H4.375C4.58301 13.8571 4.75 13.714 4.75 13.5357C4.75 13.3574 4.58301 13.2143 4.375 13.2143H3.25V11.2857H4.375C4.58301 11.2857 4.75 11.1426 4.75 10.9643C4.75 10.786 4.58301 10.6429 4.375 10.6429H3.25V8.71429H4.375C4.58301 8.71429 4.75 8.57115 4.75 8.39286C4.75 8.21456 4.58301 8.07143 4.375 8.07143H3.25V6.14286H4.375C4.58301 6.14286 4.75 5.99972 4.75 5.82143C4.75 5.64314 4.58301 5.5 4.375 5.5H3.25V3.57143H4.375C4.58301 3.57143 4.75 3.42829 4.75 3.25C4.75 3.07171 4.58301 2.92857 4.375 2.92857H3.25V2.28571C3.25 1.93164 3.58691 1.64286 4 1.64286ZM2.125 3.57143H2.5V4.21429H2.125C1.91846 4.21429 1.75 4.06989 1.75 3.89286C1.75 3.71582 1.91846 3.57143 2.125 3.57143ZM7.75 4.85714C7.33691 4.85714 7 5.14593 7 5.5V8.71429C7 9.06836 7.33691 9.35714 7.75 9.35714H15.25C15.6631 9.35714 16 9.06836 16 8.71429V5.5C16 5.14593 15.6631 4.85714 15.25 4.85714H7.75ZM7.75 5.5H15.25V8.71429H7.75V5.5ZM2.125 6.14286H2.5V6.78571H2.125C1.91846 6.78571 1.75 6.64132 1.75 6.46429C1.75 6.28725 1.91846 6.14286 2.125 6.14286ZM9.25 6.14286C9.04199 6.14286 8.875 6.28599 8.875 6.46429C8.875 6.64258 9.04199 6.78571 9.25 6.78571H10.75C10.958 6.78571 11.125 6.64258 11.125 6.46429C11.125 6.28599 10.958 6.14286 10.75 6.14286H9.25ZM12.25 6.14286C12.042 6.14286 11.875 6.28599 11.875 6.46429C11.875 6.64258 12.042 6.78571 12.25 6.78571H13.75C13.958 6.78571 14.125 6.64258 14.125 6.46429C14.125 6.28599 13.958 6.14286 13.75 6.14286H12.25ZM10 7.42857C9.79199 7.42857 9.625 7.57171 9.625 7.75C9.625 7.92829 9.79199 8.07143 10 8.07143H13C13.208 8.07143 13.375 7.92829 13.375 7.75C13.375 7.57171 13.208 7.42857 13 7.42857H10ZM2.125 8.71429H2.5V9.35714H2.125C1.91846 9.35714 1.75 9.21275 1.75 9.03571C1.75 8.85868 1.91846 8.71429 2.125 8.71429ZM2.125 11.2857H2.5V11.9286H2.125C1.91846 11.9286 1.75 11.7842 1.75 11.6071C1.75 11.4301 1.91846 11.2857 2.125 11.2857ZM2.125 13.8571H2.5V14.5H2.125C1.91846 14.5 1.75 14.3556 1.75 14.1786C1.75 14.0015 1.91846 13.8571 2.125 13.8571ZM5.125 15.1429C4.91699 15.1429 4.75 15.286 4.75 15.4643V16.1071C4.75 16.2854 4.91699 16.4286 5.125 16.4286C5.33301 16.4286 5.5 16.2854 5.5 16.1071V15.4643C5.5 15.286 5.33301 15.1429 5.125 15.1429ZM7 15.1429C6.79199 15.1429 6.625 15.286 6.625 15.4643V16.1071C6.625 16.2854 6.79199 16.4286 7 16.4286C7.20801 16.4286 7.375 16.2854 7.375 16.1071V15.4643C7.375 15.286 7.20801 15.1429 7 15.1429ZM8.875 15.1429C8.66699 15.1429 8.5 15.286 8.5 15.4643V16.1071C8.5 16.2854 8.66699 16.4286 8.875 16.4286C9.08301 16.4286 9.25 16.2854 9.25 16.1071V15.4643C9.25 15.286 9.08301 15.1429 8.875 15.1429ZM10.75 15.1429C10.542 15.1429 10.375 15.286 10.375 15.4643V16.1071C10.375 16.2854 10.542 16.4286 10.75 16.4286C10.958 16.4286 11.125 16.2854 11.125 16.1071V15.4643C11.125 15.286 10.958 15.1429 10.75 15.1429ZM12.625 15.1429C12.417 15.1429 12.25 15.286 12.25 15.4643V16.1071C12.25 16.2854 12.417 16.4286 12.625 16.4286C12.833 16.4286 13 16.2854 13 16.1071V15.4643C13 15.286 12.833 15.1429 12.625 15.1429ZM14.5 15.1429C14.292 15.1429 14.125 15.286 14.125 15.4643V16.1071C14.125 16.2854 14.292 16.4286 14.5 16.4286C14.708 16.4286 14.875 16.2854 14.875 16.1071V15.4643C14.875 15.286 14.708 15.1429 14.5 15.1429ZM16.375 15.1429C16.167 15.1429 16 15.286 16 15.4643V16.1071C16 16.2854 16.167 16.4286 16.375 16.4286C16.583 16.4286 16.75 16.2854 16.75 16.1071V15.4643C16.75 15.286 16.583 15.1429 16.375 15.1429ZM3.625 17.7143H17.5V18.0357C17.5 18.2128 17.3315 18.3571 17.125 18.3571H3.625C3.41846 18.3571 3.25 18.2128 3.25 18.0357C3.25 17.8022 3.56055 17.7143 3.625 17.7143Z" fill="#1F2326"/>
</svg>
