<svg width="20" height="20" viewBox="0 0 20 20" fill="none" xmlns="http://www.w3.org/2000/svg">
<g clip-path="url(#clip0)">
<path d="M19.4755 15.429L15.4274 12.7294C14.9137 12.3895 14.2251 12.5013 13.8453 12.9863L12.6661 14.5024C12.5146 14.7022 12.2391 14.7602 12.0199 14.6384L11.7956 14.5148C11.0521 14.1095 10.1269 13.6049 8.26282 11.7402C6.39876 9.87544 5.89317 8.94956 5.48788 8.20737L5.36489 7.98306C5.24143 7.76388 5.2983 7.48724 5.49819 7.33449L7.01328 6.15568C7.49805 5.77585 7.61002 5.08744 7.27058 4.57357L4.57098 0.525501C4.2231 0.00221889 3.52516 -0.154867 2.98661 0.168874L1.29385 1.18571C0.761977 1.4984 0.371761 2.00481 0.205028 2.59883C-0.40453 4.81982 0.0540344 8.65293 5.70054 14.3001C10.1922 18.7914 13.5361 19.9993 15.8344 19.9993C16.3633 20.0015 16.8902 19.9327 17.4008 19.7946C17.995 19.6281 18.5015 19.2378 18.8139 18.7058L19.8318 17.0141C20.156 16.4754 19.999 15.777 19.4755 15.429ZM19.2575 16.6721L18.242 18.3648C18.0176 18.7488 17.6533 19.0312 17.2255 19.1527C15.1751 19.7157 11.593 19.2494 6.17211 13.8285C0.751236 8.40765 0.285016 4.82584 0.84794 2.77517C0.969641 2.34679 1.25233 1.98204 1.63681 1.75731L3.32956 0.741796C3.56324 0.601192 3.86616 0.669346 4.01712 0.896422L5.48358 3.09809L6.71441 4.94414C6.86181 5.16704 6.81338 5.46578 6.6031 5.63072L5.08766 6.80953C4.62648 7.16217 4.49478 7.80024 4.77872 8.30665L4.89906 8.52529C5.32501 9.3065 5.85458 10.2783 7.78797 12.2114C9.72135 14.1445 10.6929 14.6741 11.4737 15.1L11.6927 15.2206C12.1991 15.5045 12.8372 15.3729 13.1898 14.9117L14.3686 13.3962C14.5336 13.1861 14.8322 13.1377 15.0552 13.2849L19.1029 15.9845C19.3302 16.1354 19.3983 16.4384 19.2575 16.6721Z" fill="#1F2326"/>
<path d="M11.333 3.33512C14.4607 3.3386 16.9953 5.87326 16.9988 9.00096C16.9988 9.18503 17.148 9.33423 17.3321 9.33423C17.5162 9.33423 17.6653 9.18503 17.6653 9.00096C17.6615 5.50527 14.8287 2.67241 11.333 2.66858C11.1489 2.66858 10.9997 2.81778 10.9997 3.00185C10.9997 3.18592 11.1489 3.33512 11.333 3.33512Z" fill="#1F2326"/>
<path d="M11.333 5.33475C13.3567 5.33714 14.9967 6.97713 14.9991 9.00089C14.9991 9.18496 15.1483 9.33416 15.3324 9.33416C15.5164 9.33416 15.6656 9.18496 15.6656 9.00089C15.6629 6.60914 13.7247 4.67095 11.333 4.66821C11.1489 4.66821 10.9997 4.81741 10.9997 5.00148C10.9997 5.18556 11.1489 5.33475 11.333 5.33475Z" fill="#1F2326"/>
<path d="M11.333 7.33451C12.2528 7.3356 12.9983 8.08104 12.9994 9.00094C12.9994 9.18502 13.1486 9.33421 13.3327 9.33421C13.5167 9.33421 13.6659 9.18502 13.6659 9.00094C13.6645 7.71309 12.6208 6.66941 11.333 6.66797C11.1489 6.66797 10.9997 6.81717 10.9997 7.00124C10.9997 7.18531 11.1489 7.33451 11.333 7.33451Z" fill="#1F2326"/>
</g>
<defs>
<clipPath id="clip0">
<rect width="20" height="20" fill="white"/>
</clipPath>
</defs>
</svg>
