<svg width="32" height="32" viewBox="0 0 32 32" fill="none" xmlns="http://www.w3.org/2000/svg">
<path d="M10.6667 0C6.24847 0 2.66673 3.58173 2.66673 8V13.8667C2.66907 15.9275 4.3392 17.5977 6.40007 17.6H6.9334V16.5333H6.40007C4.92807 16.5316 3.73513 15.3387 3.7334 13.8667V8C3.7334 4.1708 6.83753 1.06667 10.6667 1.06667C14.4959 1.06667 17.6001 4.1708 17.6001 8V13.8667C17.5983 15.3387 16.4054 16.5316 14.9334 16.5333H14.4001V17.6H14.9334C16.9943 17.5977 18.6644 15.9275 18.6667 13.8667V8C18.6667 3.58173 15.085 0 10.6667 0Z" fill="#1F2326"/>
<path d="M4.39506 25.1354L4.78493 24.5216L3.88413 23.9498L3.49426 24.5642C2.31512 26.4224 2.40266 28.8149 3.71453 30.5818V32H4.78119V30.4C4.78126 30.2788 4.74006 30.1612 4.66439 30.0666C3.53053 28.6492 3.42233 26.668 4.39506 25.1354Z" fill="#1F2326"/>
<path d="M29.3333 0H22.3999C20.9279 0.00173333 19.735 1.19467 19.7333 2.66667V8C19.735 9.472 20.9279 10.6649 22.3999 10.6667H23.4666V12.8C23.4665 13.0157 23.5964 13.2102 23.7957 13.2928C23.8604 13.3198 23.9298 13.3335 23.9999 13.3333C24.1414 13.3333 24.277 13.2771 24.377 13.1771L26.8874 10.6667H29.3333C30.8053 10.6649 31.9982 9.472 31.9999 8V2.66667C31.9982 1.19467 30.8053 0.00173333 29.3333 0ZM30.9333 8C30.9333 8.88367 30.2169 9.6 29.3333 9.6H26.6666C26.5251 9.6 26.3895 9.65627 26.2895 9.75627L24.5333 11.5125V10.1333C24.5333 9.8388 24.2945 9.6 23.9999 9.6H22.3999C21.5163 9.6 20.7999 8.88367 20.7999 8V2.66667C20.7999 1.783 21.5163 1.06667 22.3999 1.06667H29.3333C30.2169 1.06667 30.9333 1.783 30.9333 2.66667V8Z" fill="#1F2326"/>
<path d="M26.1333 2.66663H22.4V3.73329H26.1333V2.66663Z" fill="#1F2326"/>
<path d="M29.3333 2.66663H27.2V3.73329H29.3333V2.66663Z" fill="#1F2326"/>
<path d="M29.3333 4.80005H22.4V5.86672H29.3333V4.80005Z" fill="#1F2326"/>
<path d="M26.1333 6.93335H22.4V8.00002H26.1333V6.93335Z" fill="#1F2326"/>
<path d="M17.8392 24.5642L17.4494 23.9498L16.5486 24.5216L16.9384 25.136C17.9112 26.6683 17.803 28.6494 16.6691 30.0666C16.5934 30.1612 16.5522 30.2788 16.5523 30.4V32H17.619V30.5818C18.9308 28.8149 19.0184 26.4224 17.8392 24.5642Z" fill="#1F2326"/>
<path d="M31.4667 18.1333H26.6667C24.6656 18.1356 23.0223 19.7152 22.9408 21.7146L21.3333 24.6084V22.3999C21.331 20.339 19.6609 18.6689 17.6 18.6666H15.6507L15.6363 18.6554L15.6267 18.6666H14.4C13.8109 18.6666 13.3333 18.1891 13.3333 17.5999V16.345C14.9813 15.3935 15.9975 13.6361 16 11.7333V7.46659C15.9992 6.58293 15.7793 5.71326 15.36 4.9354C15.2257 4.68793 14.9221 4.58746 14.6667 4.70606L5.63947 8.95353C5.45253 9.04153 5.33327 9.22959 5.33333 9.43619V11.7333C5.33587 13.6361 6.35207 15.3935 8 16.345V17.5999C8 18.1891 7.52247 18.6666 6.93333 18.6666H3.73333C1.67247 18.6689 0.00233333 20.339 0 22.3999V31.9999H1.06667V22.3999C1.0684 20.9279 2.26133 19.735 3.73333 19.7333H5.4304L10.2331 26.4436C10.3317 26.5816 10.4901 26.6643 10.6597 26.6666H10.6667C10.8345 26.6666 10.9926 26.5875 11.0933 26.4532L16.16 19.7333H17.6C19.072 19.735 20.2649 20.9279 20.2667 22.3999V26.6666C20.2669 26.9611 20.5059 27.1997 20.8005 27.1994C20.9939 27.1992 21.1721 27.0944 21.2661 26.9252L23.7803 22.3999H26.8379L21.6379 31.9999H22.8512L28.0533 22.3999H28.2667C30.3275 22.3976 31.9977 20.7274 32 18.6666C32 18.3721 31.7612 18.1333 31.4667 18.1333ZM6.4 11.7333V9.77486L14.6352 5.89966C14.8322 6.39859 14.9333 6.93019 14.9333 7.46659V11.7333C14.9333 14.0897 13.0231 15.9999 10.6667 15.9999C8.31027 15.9999 6.4 14.0897 6.4 11.7333ZM10.6779 25.233L9.032 22.9332H12.4112L10.6779 25.233ZM13.2181 21.8666H8.26667L6.73973 19.7333H6.93333C8.11153 19.7333 9.06667 18.7781 9.06667 17.5999V16.8207C10.1081 17.1485 11.2252 17.1485 12.2667 16.8207V17.5999C12.2667 18.7781 13.2218 19.7333 14.4 19.7333H14.8267L13.2181 21.8666ZM28.2667 21.3333H24.0533C24.3083 20.0924 25.3999 19.2013 26.6667 19.1999H30.88C30.625 20.4408 29.5335 21.3319 28.2667 21.3333Z" fill="#1F2326"/>
</svg>
